solid 
 facet normal -1.000000e+00  0.000000e+00  0.000000e+00
   outer loop
     vertex -5.000000e+00  2.500000e+00 -1.500000e+00
     vertex -5.000000e+00 -2.500000e+00 -1.500000e+00
     vertex -5.000000e+00 -2.500000e+00  1.500000e+00
   endloop
 endfacet
 facet normal -1.000000e+00  0.000000e+00  0.000000e+00
   outer loop
     vertex -5.000000e+00  2.500000e+00 -1.500000e+00
     vertex -5.000000e+00 -2.500000e+00  1.500000e+00
     vertex -5.000000e+00  2.500000e+00  1.500000e+00
   endloop
 endfacet
 facet normal  0.000000e+00  1.000000e+00  0.000000e+00
   outer loop
     vertex  0.000000e+00  2.500000e+00 -1.500000e+00
     vertex -5.000000e+00  2.500000e+00 -1.500000e+00
     vertex -5.000000e+00  2.500000e+00  1.500000e+00
   endloop
 endfacet
 facet normal  0.000000e+00  1.000000e+00 -0.000000e+00
   outer loop
     vertex  0.000000e+00  2.500000e+00 -1.500000e+00
     vertex -5.000000e+00  2.500000e+00  1.500000e+00
     vertex  0.000000e+00  2.500000e+00  1.500000e+00
   endloop
 endfacet
 facet normal -1.000000e+00  0.000000e+00  0.000000e+00
   outer loop
     vertex  0.000000e+00  4.500000e+00 -1.500000e+00
     vertex  0.000000e+00  2.500000e+00 -1.500000e+00
     vertex  0.000000e+00  2.500000e+00  1.500000e+00
   endloop
 endfacet
 facet normal -1.000000e+00  0.000000e+00  0.000000e+00
   outer loop
     vertex  0.000000e+00  4.500000e+00 -1.500000e+00
     vertex  0.000000e+00  2.500000e+00  1.500000e+00
     vertex  0.000000e+00  4.500000e+00  1.500000e+00
   endloop
 endfacet
 facet normal  6.689647e-01  7.432941e-01  0.000000e+00
   outer loop
     vertex  5.000000e+00  0.000000e+00 -1.500000e+00
     vertex  0.000000e+00  4.500000e+00 -1.500000e+00
     vertex  0.000000e+00  4.500000e+00  1.500000e+00
   endloop
 endfacet
 facet normal  6.689647e-01  7.432941e-01 -0.000000e+00
   outer loop
     vertex  5.000000e+00  0.000000e+00 -1.500000e+00
     vertex  0.000000e+00  4.500000e+00  1.500000e+00
     vertex  5.000000e+00  0.000000e+00  1.500000e+00
   endloop
 endfacet
 facet normal  6.689647e-01 -7.432941e-01  0.000000e+00
   outer loop
     vertex  0.000000e+00 -4.500000e+00 -1.500000e+00
     vertex  5.000000e+00  0.000000e+00 -1.500000e+00
     vertex  5.000000e+00  0.000000e+00  1.500000e+00
   endloop
 endfacet
 facet normal  6.689647e-01 -7.432941e-01  0.000000e+00
   outer loop
     vertex  0.000000e+00 -4.500000e+00 -1.500000e+00
     vertex  5.000000e+00  0.000000e+00  1.500000e+00
     vertex  0.000000e+00 -4.500000e+00  1.500000e+00
   endloop
 endfacet
 facet normal -1.000000e+00  0.000000e+00  0.000000e+00
   outer loop
     vertex  0.000000e+00 -2.500000e+00 -1.500000e+00
     vertex  0.000000e+00 -4.500000e+00 -1.500000e+00
     vertex  0.000000e+00 -4.500000e+00  1.500000e+00
   endloop
 endfacet
 facet normal -1.000000e+00  0.000000e+00  0.000000e+00
   outer loop
     vertex  0.000000e+00 -2.500000e+00 -1.500000e+00
     vertex  0.000000e+00 -4.500000e+00  1.500000e+00
     vertex  0.000000e+00 -2.500000e+00  1.500000e+00
   endloop
 endfacet
 facet normal  0.000000e+00 -1.000000e+00  0.000000e+00
   outer loop
     vertex -5.000000e+00 -2.500000e+00 -1.500000e+00
     vertex  0.000000e+00 -2.500000e+00 -1.500000e+00
     vertex  0.000000e+00 -2.500000e+00  1.500000e+00
   endloop
 endfacet
 facet normal  0.000000e+00 -1.000000e+00  0.000000e+00
   outer loop
     vertex -5.000000e+00 -2.500000e+00 -1.500000e+00
     vertex  0.000000e+00 -2.500000e+00  1.500000e+00
     vertex -5.000000e+00 -2.500000e+00  1.500000e+00
   endloop
 endfacet
 facet normal  0.000000e+00  0.000000e+00 -1.000000e+00
   outer loop
     vertex  0.000000e+00 -2.500000e+00 -1.500000e+00
     vertex  5.000000e+00  0.000000e+00 -1.500000e+00
     vertex  0.000000e+00 -4.500000e+00 -1.500000e+00
   endloop
 endfacet
 facet normal  0.000000e+00  0.000000e+00 -1.000000e+00
   outer loop
     vertex  0.000000e+00  2.500000e+00 -1.500000e+00
     vertex  5.000000e+00  0.000000e+00 -1.500000e+00
     vertex  0.000000e+00 -2.500000e+00 -1.500000e+00
   endloop
 endfacet
 facet normal  0.000000e+00  0.000000e+00 -1.000000e+00
   outer loop
     vertex  0.000000e+00  4.500000e+00 -1.500000e+00
     vertex  5.000000e+00  0.000000e+00 -1.500000e+00
     vertex  0.000000e+00  2.500000e+00 -1.500000e+00
   endloop
 endfacet
 facet normal  0.000000e+00  0.000000e+00 -1.000000e+00
   outer loop
     vertex -5.000000e+00  2.500000e+00 -1.500000e+00
     vertex  0.000000e+00 -2.500000e+00 -1.500000e+00
     vertex -5.000000e+00 -2.500000e+00 -1.500000e+00
   endloop
 endfacet
 facet normal  0.000000e+00  0.000000e+00 -1.000000e+00
   outer loop
     vertex -5.000000e+00  2.500000e+00 -1.500000e+00
     vertex  0.000000e+00  2.500000e+00 -1.500000e+00
     vertex  0.000000e+00 -2.500000e+00 -1.500000e+00
   endloop
 endfacet
 facet normal -0.000000e+00  0.000000e+00  1.000000e+00
   outer loop
     vertex  0.000000e+00 -2.500000e+00  1.500000e+00
     vertex  0.000000e+00 -4.500000e+00  1.500000e+00
     vertex  5.000000e+00  0.000000e+00  1.500000e+00
   endloop
 endfacet
 facet normal  0.000000e+00  0.000000e+00  1.000000e+00
   outer loop
     vertex  0.000000e+00  2.500000e+00  1.500000e+00
     vertex  0.000000e+00 -2.500000e+00  1.500000e+00
     vertex  5.000000e+00  0.000000e+00  1.500000e+00
   endloop
 endfacet
 facet normal  0.000000e+00  0.000000e+00  1.000000e+00
   outer loop
     vertex  0.000000e+00  4.500000e+00  1.500000e+00
     vertex  0.000000e+00  2.500000e+00  1.500000e+00
     vertex  5.000000e+00  0.000000e+00  1.500000e+00
   endloop
 endfacet
 facet normal  0.000000e+00  0.000000e+00  1.000000e+00
   outer loop
     vertex -5.000000e+00  2.500000e+00  1.500000e+00
     vertex -5.000000e+00 -2.500000e+00  1.500000e+00
     vertex  0.000000e+00 -2.500000e+00  1.500000e+00
   endloop
 endfacet
 facet normal -0.000000e+00  0.000000e+00  1.000000e+00
   outer loop
     vertex -5.000000e+00  2.500000e+00  1.500000e+00
     vertex  0.000000e+00 -2.500000e+00  1.500000e+00
     vertex  0.000000e+00  2.500000e+00  1.500000e+00
   endloop
 endfacet
endsolid
