solid 
 facet normal -8.137335e-01  5.812382e-01  0.000000e+00
   outer loop
     vertex  0.000000e+00  3.500000e+00 -1.000000e+00
     vertex -5.000000e+00 -3.500000e+00 -1.000000e+00
     vertex -5.000000e+00 -3.500000e+00  1.000000e+00
   endloop
 endfacet
 facet normal -8.137335e-01  5.812382e-01  0.000000e+00
   outer loop
     vertex  0.000000e+00  3.500000e+00 -1.000000e+00
     vertex -5.000000e+00 -3.500000e+00  1.000000e+00
     vertex  0.000000e+00  3.500000e+00  1.000000e+00
   endloop
 endfacet
 facet normal  8.137335e-01  5.812382e-01  0.000000e+00
   outer loop
     vertex  5.000000e+00 -3.500000e+00 -1.000000e+00
     vertex  0.000000e+00  3.500000e+00 -1.000000e+00
     vertex  0.000000e+00  3.500000e+00  1.000000e+00
   endloop
 endfacet
 facet normal  8.137335e-01  5.812382e-01 -0.000000e+00
   outer loop
     vertex  5.000000e+00 -3.500000e+00 -1.000000e+00
     vertex  0.000000e+00  3.500000e+00  1.000000e+00
     vertex  5.000000e+00 -3.500000e+00  1.000000e+00
   endloop
 endfacet
 facet normal  0.000000e+00 -1.000000e+00  0.000000e+00
   outer loop
     vertex  2.000000e+00 -3.500000e+00 -1.000000e+00
     vertex  5.000000e+00 -3.500000e+00 -1.000000e+00
     vertex  5.000000e+00 -3.500000e+00  1.000000e+00
   endloop
 endfacet
 facet normal  0.000000e+00 -1.000000e+00  0.000000e+00
   outer loop
     vertex  2.000000e+00 -3.500000e+00 -1.000000e+00
     vertex  5.000000e+00 -3.500000e+00  1.000000e+00
     vertex  2.000000e+00 -3.500000e+00  1.000000e+00
   endloop
 endfacet
 facet normal -8.944272e-01 -4.472136e-01  0.000000e+00
   outer loop
     vertex  0.000000e+00  5.000000e-01 -1.000000e+00
     vertex  2.000000e+00 -3.500000e+00 -1.000000e+00
     vertex  2.000000e+00 -3.500000e+00  1.000000e+00
   endloop
 endfacet
 facet normal -8.944272e-01 -4.472136e-01  0.000000e+00
   outer loop
     vertex  0.000000e+00  5.000000e-01 -1.000000e+00
     vertex  2.000000e+00 -3.500000e+00  1.000000e+00
     vertex  0.000000e+00  5.000000e-01  1.000000e+00
   endloop
 endfacet
 facet normal  8.944272e-01 -4.472136e-01  0.000000e+00
   outer loop
     vertex -2.000000e+00 -3.500000e+00 -1.000000e+00
     vertex  0.000000e+00  5.000000e-01 -1.000000e+00
     vertex  0.000000e+00  5.000000e-01  1.000000e+00
   endloop
 endfacet
 facet normal  8.944272e-01 -4.472136e-01  0.000000e+00
   outer loop
     vertex -2.000000e+00 -3.500000e+00 -1.000000e+00
     vertex  0.000000e+00  5.000000e-01  1.000000e+00
     vertex -2.000000e+00 -3.500000e+00  1.000000e+00
   endloop
 endfacet
 facet normal  0.000000e+00 -1.000000e+00  0.000000e+00
   outer loop
     vertex -5.000000e+00 -3.500000e+00 -1.000000e+00
     vertex -2.000000e+00 -3.500000e+00 -1.000000e+00
     vertex -2.000000e+00 -3.500000e+00  1.000000e+00
   endloop
 endfacet
 facet normal  0.000000e+00 -1.000000e+00  0.000000e+00
   outer loop
     vertex -5.000000e+00 -3.500000e+00 -1.000000e+00
     vertex -2.000000e+00 -3.500000e+00  1.000000e+00
     vertex -5.000000e+00 -3.500000e+00  1.000000e+00
   endloop
 endfacet
 facet normal  0.000000e+00  0.000000e+00 -1.000000e+00
   outer loop
     vertex  0.000000e+00  5.000000e-01 -1.000000e+00
     vertex  5.000000e+00 -3.500000e+00 -1.000000e+00
     vertex  2.000000e+00 -3.500000e+00 -1.000000e+00
   endloop
 endfacet
 facet normal  0.000000e+00  0.000000e+00 -1.000000e+00
   outer loop
     vertex -5.000000e+00 -3.500000e+00 -1.000000e+00
     vertex  0.000000e+00  5.000000e-01 -1.000000e+00
     vertex -2.000000e+00 -3.500000e+00 -1.000000e+00
   endloop
 endfacet
 facet normal  0.000000e+00 -0.000000e+00 -1.000000e+00
   outer loop
     vertex  0.000000e+00  3.500000e+00 -1.000000e+00
     vertex  0.000000e+00  5.000000e-01 -1.000000e+00
     vertex -5.000000e+00 -3.500000e+00 -1.000000e+00
   endloop
 endfacet
 facet normal  0.000000e+00  0.000000e+00 -1.000000e+00
   outer loop
     vertex  0.000000e+00  3.500000e+00 -1.000000e+00
     vertex  5.000000e+00 -3.500000e+00 -1.000000e+00
     vertex  0.000000e+00  5.000000e-01 -1.000000e+00
   endloop
 endfacet
 facet normal  0.000000e+00  0.000000e+00  1.000000e+00
   outer loop
     vertex  0.000000e+00  5.000000e-01  1.000000e+00
     vertex  2.000000e+00 -3.500000e+00  1.000000e+00
     vertex  5.000000e+00 -3.500000e+00  1.000000e+00
   endloop
 endfacet
 facet normal  0.000000e+00  0.000000e+00  1.000000e+00
   outer loop
     vertex -5.000000e+00 -3.500000e+00  1.000000e+00
     vertex -2.000000e+00 -3.500000e+00  1.000000e+00
     vertex  0.000000e+00  5.000000e-01  1.000000e+00
   endloop
 endfacet
 facet normal  0.000000e+00  0.000000e+00  1.000000e+00
   outer loop
     vertex  0.000000e+00  3.500000e+00  1.000000e+00
     vertex -5.000000e+00 -3.500000e+00  1.000000e+00
     vertex  0.000000e+00  5.000000e-01  1.000000e+00
   endloop
 endfacet
 facet normal  0.000000e+00  0.000000e+00  1.000000e+00
   outer loop
     vertex  0.000000e+00  3.500000e+00  1.000000e+00
     vertex  0.000000e+00  5.000000e-01  1.000000e+00
     vertex  5.000000e+00 -3.500000e+00  1.000000e+00
   endloop
 endfacet
endsolid
