solid 
 facet normal -8.944272e-01  4.472136e-01  0.000000e+00
   outer loop
     vertex  1.250000e+00  5.000000e+00  0.000000e+00
     vertex  0.000000e+00  2.500000e+00  0.000000e+00
     vertex  0.000000e+00  2.500000e+00  5.000000e+00
   endloop
 endfacet
 facet normal -8.944272e-01  4.472136e-01  0.000000e+00
   outer loop
     vertex  1.250000e+00  5.000000e+00  0.000000e+00
     vertex  0.000000e+00  2.500000e+00  5.000000e+00
     vertex  1.250000e+00  5.000000e+00  5.000000e+00
   endloop
 endfacet
 facet normal  0.000000e+00  1.000000e+00  0.000000e+00
   outer loop
     vertex  3.750000e+00  5.000000e+00  0.000000e+00
     vertex  1.250000e+00  5.000000e+00  0.000000e+00
     vertex  1.250000e+00  5.000000e+00  5.000000e+00
   endloop
 endfacet
 facet normal  0.000000e+00  1.000000e+00 -0.000000e+00
   outer loop
     vertex  3.750000e+00  5.000000e+00  0.000000e+00
     vertex  1.250000e+00  5.000000e+00  5.000000e+00
     vertex  3.750000e+00  5.000000e+00  5.000000e+00
   endloop
 endfacet
 facet normal  8.944272e-01  4.472136e-01  0.000000e+00
   outer loop
     vertex  5.000000e+00  2.500000e+00  0.000000e+00
     vertex  3.750000e+00  5.000000e+00  0.000000e+00
     vertex  3.750000e+00  5.000000e+00  5.000000e+00
   endloop
 endfacet
 facet normal  8.944272e-01  4.472136e-01 -0.000000e+00
   outer loop
     vertex  5.000000e+00  2.500000e+00  0.000000e+00
     vertex  3.750000e+00  5.000000e+00  5.000000e+00
     vertex  5.000000e+00  2.500000e+00  5.000000e+00
   endloop
 endfacet
 facet normal  8.944272e-01 -4.472136e-01  0.000000e+00
   outer loop
     vertex  3.750000e+00  0.000000e+00  0.000000e+00
     vertex  5.000000e+00  2.500000e+00  0.000000e+00
     vertex  5.000000e+00  2.500000e+00  5.000000e+00
   endloop
 endfacet
 facet normal  8.944272e-01 -4.472136e-01  0.000000e+00
   outer loop
     vertex  3.750000e+00  0.000000e+00  0.000000e+00
     vertex  5.000000e+00  2.500000e+00  5.000000e+00
     vertex  3.750000e+00  0.000000e+00  5.000000e+00
   endloop
 endfacet
 facet normal  0.000000e+00 -1.000000e+00  0.000000e+00
   outer loop
     vertex  1.250000e+00  0.000000e+00  0.000000e+00
     vertex  3.750000e+00  0.000000e+00  0.000000e+00
     vertex  3.750000e+00  0.000000e+00  5.000000e+00
   endloop
 endfacet
 facet normal  0.000000e+00 -1.000000e+00  0.000000e+00
   outer loop
     vertex  1.250000e+00  0.000000e+00  0.000000e+00
     vertex  3.750000e+00  0.000000e+00  5.000000e+00
     vertex  1.250000e+00  0.000000e+00  5.000000e+00
   endloop
 endfacet
 facet normal -8.944272e-01 -4.472136e-01  0.000000e+00
   outer loop
     vertex  0.000000e+00  2.500000e+00  0.000000e+00
     vertex  1.250000e+00  0.000000e+00  0.000000e+00
     vertex  1.250000e+00  0.000000e+00  5.000000e+00
   endloop
 endfacet
 facet normal -8.944272e-01 -4.472136e-01  0.000000e+00
   outer loop
     vertex  0.000000e+00  2.500000e+00  0.000000e+00
     vertex  1.250000e+00  0.000000e+00  5.000000e+00
     vertex  0.000000e+00  2.500000e+00  5.000000e+00
   endloop
 endfacet
 facet normal  0.000000e+00  0.000000e+00 -1.000000e+00
   outer loop
     vertex  0.000000e+00  2.500000e+00  0.000000e+00
     vertex  5.000000e+00  2.500000e+00  0.000000e+00
     vertex  3.750000e+00  0.000000e+00  0.000000e+00
   endloop
 endfacet
 facet normal  0.000000e+00  0.000000e+00 -1.000000e+00
   outer loop
     vertex  0.000000e+00  2.500000e+00  0.000000e+00
     vertex  3.750000e+00  0.000000e+00  0.000000e+00
     vertex  1.250000e+00  0.000000e+00  0.000000e+00
   endloop
 endfacet
 facet normal  0.000000e+00  0.000000e+00 -1.000000e+00
   outer loop
     vertex  1.250000e+00  5.000000e+00  0.000000e+00
     vertex  3.750000e+00  5.000000e+00  0.000000e+00
     vertex  5.000000e+00  2.500000e+00  0.000000e+00
   endloop
 endfacet
 facet normal  0.000000e+00 -0.000000e+00 -1.000000e+00
   outer loop
     vertex  1.250000e+00  5.000000e+00  0.000000e+00
     vertex  5.000000e+00  2.500000e+00  0.000000e+00
     vertex  0.000000e+00  2.500000e+00  0.000000e+00
   endloop
 endfacet
 facet normal -0.000000e+00  0.000000e+00  1.000000e+00
   outer loop
     vertex  0.000000e+00  2.500000e+00  5.000000e+00
     vertex  3.750000e+00  0.000000e+00  5.000000e+00
     vertex  5.000000e+00  2.500000e+00  5.000000e+00
   endloop
 endfacet
 facet normal  0.000000e+00  0.000000e+00  1.000000e+00
   outer loop
     vertex  0.000000e+00  2.500000e+00  5.000000e+00
     vertex  1.250000e+00  0.000000e+00  5.000000e+00
     vertex  3.750000e+00  0.000000e+00  5.000000e+00
   endloop
 endfacet
 facet normal -0.000000e+00  0.000000e+00  1.000000e+00
   outer loop
     vertex  1.250000e+00  5.000000e+00  5.000000e+00
     vertex  5.000000e+00  2.500000e+00  5.000000e+00
     vertex  3.750000e+00  5.000000e+00  5.000000e+00
   endloop
 endfacet
 facet normal  0.000000e+00  0.000000e+00  1.000000e+00
   outer loop
     vertex  1.250000e+00  5.000000e+00  5.000000e+00
     vertex  0.000000e+00  2.500000e+00  5.000000e+00
     vertex  5.000000e+00  2.500000e+00  5.000000e+00
   endloop
 endfacet
endsolid
