solid 
 facet normal  8.660254e-01  5.000000e-01  0.000000e+00
   outer loop
     vertex  2.500000e+00  4.330127e+00 -2.500000e+00
     vertex  5.000000e+00  0.000000e+00  2.500000e+00
     vertex  5.000000e+00  0.000000e+00 -2.500000e+00
   endloop
 endfacet
 facet normal  8.660254e-01  5.000000e-01 -0.000000e+00
   outer loop
     vertex  2.500000e+00  4.330127e+00 -2.500000e+00
     vertex  2.500000e+00  4.330127e+00  2.500000e+00
     vertex  5.000000e+00  0.000000e+00  2.500000e+00
   endloop
 endfacet
 facet normal  1.776357e-16  1.000000e+00  0.000000e+00
   outer loop
     vertex -2.500000e+00  4.330127e+00 -2.500000e+00
     vertex  2.500000e+00  4.330127e+00  2.500000e+00
     vertex  2.500000e+00  4.330127e+00 -2.500000e+00
   endloop
 endfacet
 facet normal  1.776357e-16  1.000000e+00 -0.000000e+00
   outer loop
     vertex -2.500000e+00  4.330127e+00 -2.500000e+00
     vertex -2.500000e+00  4.330127e+00  2.500000e+00
     vertex  2.500000e+00  4.330127e+00  2.500000e+00
   endloop
 endfacet
 facet normal -8.660254e-01  5.000000e-01  0.000000e+00
   outer loop
     vertex -5.000000e+00  6.123234e-16 -2.500000e+00
     vertex -2.500000e+00  4.330127e+00  2.500000e+00
     vertex -2.500000e+00  4.330127e+00 -2.500000e+00
   endloop
 endfacet
 facet normal -8.660254e-01  5.000000e-01  0.000000e+00
   outer loop
     vertex -5.000000e+00  6.123234e-16 -2.500000e+00
     vertex -5.000000e+00  6.123234e-16  2.500000e+00
     vertex -2.500000e+00  4.330127e+00  2.500000e+00
   endloop
 endfacet
 facet normal -8.660254e-01 -5.000000e-01  0.000000e+00
   outer loop
     vertex -2.500000e+00 -4.330127e+00 -2.500000e+00
     vertex -5.000000e+00  6.123234e-16  2.500000e+00
     vertex -5.000000e+00  6.123234e-16 -2.500000e+00
   endloop
 endfacet
 facet normal -8.660254e-01 -5.000000e-01  0.000000e+00
   outer loop
     vertex -2.500000e+00 -4.330127e+00 -2.500000e+00
     vertex -2.500000e+00 -4.330127e+00  2.500000e+00
     vertex -5.000000e+00  6.123234e-16  2.500000e+00
   endloop
 endfacet
 facet normal  0.000000e+00 -1.000000e+00  0.000000e+00
   outer loop
     vertex  2.500000e+00 -4.330127e+00 -2.500000e+00
     vertex -2.500000e+00 -4.330127e+00  2.500000e+00
     vertex -2.500000e+00 -4.330127e+00 -2.500000e+00
   endloop
 endfacet
 facet normal  0.000000e+00 -1.000000e+00  0.000000e+00
   outer loop
     vertex  2.500000e+00 -4.330127e+00 -2.500000e+00
     vertex  2.500000e+00 -4.330127e+00  2.500000e+00
     vertex -2.500000e+00 -4.330127e+00  2.500000e+00
   endloop
 endfacet
 facet normal  8.660254e-01 -5.000000e-01  0.000000e+00
   outer loop
     vertex  5.000000e+00  0.000000e+00 -2.500000e+00
     vertex  2.500000e+00 -4.330127e+00  2.500000e+00
     vertex  2.500000e+00 -4.330127e+00 -2.500000e+00
   endloop
 endfacet
 facet normal  8.660254e-01 -5.000000e-01  0.000000e+00
   outer loop
     vertex  5.000000e+00  0.000000e+00 -2.500000e+00
     vertex  5.000000e+00  0.000000e+00  2.500000e+00
     vertex  2.500000e+00 -4.330127e+00  2.500000e+00
   endloop
 endfacet
 facet normal  0.000000e+00  0.000000e+00 -1.000000e+00
   outer loop
     vertex -2.500000e+00  4.330127e+00 -2.500000e+00
     vertex -2.500000e+00 -4.330127e+00 -2.500000e+00
     vertex -5.000000e+00  6.123234e-16 -2.500000e+00
   endloop
 endfacet
 facet normal  0.000000e+00 -0.000000e+00 -1.000000e+00
   outer loop
     vertex  2.500000e+00  4.330127e+00 -2.500000e+00
     vertex  2.500000e+00 -4.330127e+00 -2.500000e+00
     vertex -2.500000e+00 -4.330127e+00 -2.500000e+00
   endloop
 endfacet
 facet normal  0.000000e+00  0.000000e+00 -1.000000e+00
   outer loop
     vertex  2.500000e+00  4.330127e+00 -2.500000e+00
     vertex  5.000000e+00  0.000000e+00 -2.500000e+00
     vertex  2.500000e+00 -4.330127e+00 -2.500000e+00
   endloop
 endfacet
 facet normal -0.000000e+00  0.000000e+00 -1.000000e+00
   outer loop
     vertex  2.500000e+00  4.330127e+00 -2.500000e+00
     vertex -2.500000e+00 -4.330127e+00 -2.500000e+00
     vertex -2.500000e+00  4.330127e+00 -2.500000e+00
   endloop
 endfacet
 facet normal  0.000000e+00  0.000000e+00  1.000000e+00
   outer loop
     vertex -2.500000e+00  4.330127e+00  2.500000e+00
     vertex -5.000000e+00  6.123234e-16  2.500000e+00
     vertex -2.500000e+00 -4.330127e+00  2.500000e+00
   endloop
 endfacet
 facet normal  0.000000e+00  0.000000e+00  1.000000e+00
   outer loop
     vertex  2.500000e+00  4.330127e+00  2.500000e+00
     vertex -2.500000e+00 -4.330127e+00  2.500000e+00
     vertex  2.500000e+00 -4.330127e+00  2.500000e+00
   endloop
 endfacet
 facet normal  0.000000e+00  0.000000e+00  1.000000e+00
   outer loop
     vertex  2.500000e+00  4.330127e+00  2.500000e+00
     vertex  2.500000e+00 -4.330127e+00  2.500000e+00
     vertex  5.000000e+00  0.000000e+00  2.500000e+00
   endloop
 endfacet
 facet normal  0.000000e+00  0.000000e+00  1.000000e+00
   outer loop
     vertex  2.500000e+00  4.330127e+00  2.500000e+00
     vertex -2.500000e+00  4.330127e+00  2.500000e+00
     vertex -2.500000e+00 -4.330127e+00  2.500000e+00
   endloop
 endfacet
endsolid
