solid 
 facet normal  1.000000e+00  0.000000e+00  0.000000e+00
   outer loop
     vertex  4.330127e+00  2.500000e+00  0.000000e+00
     vertex  4.330127e+00 -2.500000e+00  5.000000e+00
     vertex  4.330127e+00 -2.500000e+00  0.000000e+00
   endloop
 endfacet
 facet normal  1.000000e+00  0.000000e+00 -0.000000e+00
   outer loop
     vertex  4.330127e+00  2.500000e+00  0.000000e+00
     vertex  4.330127e+00  2.500000e+00  5.000000e+00
     vertex  4.330127e+00 -2.500000e+00  5.000000e+00
   endloop
 endfacet
 facet normal  5.000000e-01  8.660254e-01  0.000000e+00
   outer loop
     vertex  3.061617e-16  5.000000e+00  0.000000e+00
     vertex  4.330127e+00  2.500000e+00  5.000000e+00
     vertex  4.330127e+00  2.500000e+00  0.000000e+00
   endloop
 endfacet
 facet normal  5.000000e-01  8.660254e-01 -0.000000e+00
   outer loop
     vertex  3.061617e-16  5.000000e+00  0.000000e+00
     vertex  3.061617e-16  5.000000e+00  5.000000e+00
     vertex  4.330127e+00  2.500000e+00  5.000000e+00
   endloop
 endfacet
 facet normal -5.000000e-01  8.660254e-01  0.000000e+00
   outer loop
     vertex -4.330127e+00  2.500000e+00  0.000000e+00
     vertex  3.061617e-16  5.000000e+00  5.000000e+00
     vertex  3.061617e-16  5.000000e+00  0.000000e+00
   endloop
 endfacet
 facet normal -5.000000e-01  8.660254e-01  0.000000e+00
   outer loop
     vertex -4.330127e+00  2.500000e+00  0.000000e+00
     vertex -4.330127e+00  2.500000e+00  5.000000e+00
     vertex  3.061617e-16  5.000000e+00  5.000000e+00
   endloop
 endfacet
 facet normal -1.000000e+00 -1.776357e-16  0.000000e+00
   outer loop
     vertex -4.330127e+00 -2.500000e+00  0.000000e+00
     vertex -4.330127e+00  2.500000e+00  5.000000e+00
     vertex -4.330127e+00  2.500000e+00  0.000000e+00
   endloop
 endfacet
 facet normal -1.000000e+00 -1.776357e-16  0.000000e+00
   outer loop
     vertex -4.330127e+00 -2.500000e+00  0.000000e+00
     vertex -4.330127e+00 -2.500000e+00  5.000000e+00
     vertex -4.330127e+00  2.500000e+00  5.000000e+00
   endloop
 endfacet
 facet normal -5.000000e-01 -8.660254e-01  0.000000e+00
   outer loop
     vertex -9.184851e-16 -5.000000e+00  0.000000e+00
     vertex -4.330127e+00 -2.500000e+00  5.000000e+00
     vertex -4.330127e+00 -2.500000e+00  0.000000e+00
   endloop
 endfacet
 facet normal -5.000000e-01 -8.660254e-01  0.000000e+00
   outer loop
     vertex -9.184851e-16 -5.000000e+00  0.000000e+00
     vertex -9.184851e-16 -5.000000e+00  5.000000e+00
     vertex -4.330127e+00 -2.500000e+00  5.000000e+00
   endloop
 endfacet
 facet normal  5.000000e-01 -8.660254e-01  0.000000e+00
   outer loop
     vertex  4.330127e+00 -2.500000e+00  0.000000e+00
     vertex -9.184851e-16 -5.000000e+00  5.000000e+00
     vertex -9.184851e-16 -5.000000e+00  0.000000e+00
   endloop
 endfacet
 facet normal  5.000000e-01 -8.660254e-01  0.000000e+00
   outer loop
     vertex  4.330127e+00 -2.500000e+00  0.000000e+00
     vertex  4.330127e+00 -2.500000e+00  5.000000e+00
     vertex -9.184851e-16 -5.000000e+00  5.000000e+00
   endloop
 endfacet
 facet normal  0.000000e+00  0.000000e+00 -1.000000e+00
   outer loop
     vertex  3.061617e-16  5.000000e+00  0.000000e+00
     vertex -4.330127e+00 -2.500000e+00  0.000000e+00
     vertex -4.330127e+00  2.500000e+00  0.000000e+00
   endloop
 endfacet
 facet normal  0.000000e+00  0.000000e+00 -1.000000e+00
   outer loop
     vertex  4.330127e+00  2.500000e+00  0.000000e+00
     vertex -9.184851e-16 -5.000000e+00  0.000000e+00
     vertex -4.330127e+00 -2.500000e+00  0.000000e+00
   endloop
 endfacet
 facet normal  0.000000e+00 -0.000000e+00 -1.000000e+00
   outer loop
     vertex  4.330127e+00  2.500000e+00  0.000000e+00
     vertex  4.330127e+00 -2.500000e+00  0.000000e+00
     vertex -9.184851e-16 -5.000000e+00  0.000000e+00
   endloop
 endfacet
 facet normal -0.000000e+00  0.000000e+00 -1.000000e+00
   outer loop
     vertex  4.330127e+00  2.500000e+00  0.000000e+00
     vertex -4.330127e+00 -2.500000e+00  0.000000e+00
     vertex  3.061617e-16  5.000000e+00  0.000000e+00
   endloop
 endfacet
 facet normal  0.000000e+00  0.000000e+00  1.000000e+00
   outer loop
     vertex  3.061617e-16  5.000000e+00  5.000000e+00
     vertex -4.330127e+00  2.500000e+00  5.000000e+00
     vertex -4.330127e+00 -2.500000e+00  5.000000e+00
   endloop
 endfacet
 facet normal  0.000000e+00  0.000000e+00  1.000000e+00
   outer loop
     vertex  4.330127e+00  2.500000e+00  5.000000e+00
     vertex -4.330127e+00 -2.500000e+00  5.000000e+00
     vertex -9.184851e-16 -5.000000e+00  5.000000e+00
   endloop
 endfacet
 facet normal  0.000000e+00  0.000000e+00  1.000000e+00
   outer loop
     vertex  4.330127e+00  2.500000e+00  5.000000e+00
     vertex -9.184851e-16 -5.000000e+00  5.000000e+00
     vertex  4.330127e+00 -2.500000e+00  5.000000e+00
   endloop
 endfacet
 facet normal  0.000000e+00  0.000000e+00  1.000000e+00
   outer loop
     vertex  4.330127e+00  2.500000e+00  5.000000e+00
     vertex  3.061617e-16  5.000000e+00  5.000000e+00
     vertex -4.330127e+00 -2.500000e+00  5.000000e+00
   endloop
 endfacet
endsolid
