solid 
 facet normal -1.000000e+00  0.000000e+00  0.000000e+00
   outer loop
     vertex -3.000000e+00  5.000000e-01 -1.000000e+00
     vertex -3.000000e+00  5.000000e-01 -2.500000e+00
     vertex -3.000000e+00 -5.000000e-01 -2.500000e+00
   endloop
 endfacet
 facet normal -1.000000e+00 -0.000000e+00  0.000000e+00
   outer loop
     vertex -3.000000e+00  5.000000e-01 -1.000000e+00
     vertex -3.000000e+00 -5.000000e-01 -2.500000e+00
     vertex -3.000000e+00 -5.000000e-01 -1.000000e+00
   endloop
 endfacet
 facet normal -5.038710e-01  0.000000e+00  8.637789e-01
   outer loop
     vertex  3.000000e+00  5.000000e-01  2.500000e+00
     vertex -3.000000e+00  5.000000e-01 -1.000000e+00
     vertex -3.000000e+00 -5.000000e-01 -1.000000e+00
   endloop
 endfacet
 facet normal -5.038710e-01  0.000000e+00  8.637789e-01
   outer loop
     vertex  3.000000e+00  5.000000e-01  2.500000e+00
     vertex -3.000000e+00 -5.000000e-01 -1.000000e+00
     vertex  3.000000e+00 -5.000000e-01  2.500000e+00
   endloop
 endfacet
 facet normal  1.000000e+00  0.000000e+00 -0.000000e+00
   outer loop
     vertex  3.000000e+00  5.000000e-01  1.000000e+00
     vertex  3.000000e+00  5.000000e-01  2.500000e+00
     vertex  3.000000e+00 -5.000000e-01  2.500000e+00
   endloop
 endfacet
 facet normal  1.000000e+00  0.000000e+00  0.000000e+00
   outer loop
     vertex  3.000000e+00  5.000000e-01  1.000000e+00
     vertex  3.000000e+00 -5.000000e-01  2.500000e+00
     vertex  3.000000e+00 -5.000000e-01  1.000000e+00
   endloop
 endfacet
 facet normal  5.038710e-01  0.000000e+00 -8.637789e-01
   outer loop
     vertex -3.000000e+00  5.000000e-01 -2.500000e+00
     vertex  3.000000e+00  5.000000e-01  1.000000e+00
     vertex  3.000000e+00 -5.000000e-01  1.000000e+00
   endloop
 endfacet
 facet normal  5.038710e-01  0.000000e+00 -8.637789e-01
   outer loop
     vertex -3.000000e+00  5.000000e-01 -2.500000e+00
     vertex  3.000000e+00 -5.000000e-01  1.000000e+00
     vertex -3.000000e+00 -5.000000e-01 -2.500000e+00
   endloop
 endfacet
 facet normal -1.233581e-17  1.000000e+00 -7.401487e-17
   outer loop
     vertex -3.000000e+00  5.000000e-01 -1.000000e+00
     vertex  3.000000e+00  5.000000e-01  2.500000e+00
     vertex  3.000000e+00  5.000000e-01  1.000000e+00
   endloop
 endfacet
 facet normal  0.000000e+00  1.000000e+00 -1.110223e-16
   outer loop
     vertex -3.000000e+00  5.000000e-01 -1.000000e+00
     vertex  3.000000e+00  5.000000e-01  1.000000e+00
     vertex -3.000000e+00  5.000000e-01 -2.500000e+00
   endloop
 endfacet
 facet normal  0.000000e+00 -1.000000e+00  1.110223e-16
   outer loop
     vertex -3.000000e+00 -5.000000e-01 -1.000000e+00
     vertex  3.000000e+00 -5.000000e-01  1.000000e+00
     vertex  3.000000e+00 -5.000000e-01  2.500000e+00
   endloop
 endfacet
 facet normal  1.233581e-17 -1.000000e+00  7.401487e-17
   outer loop
     vertex -3.000000e+00 -5.000000e-01 -1.000000e+00
     vertex -3.000000e+00 -5.000000e-01 -2.500000e+00
     vertex  3.000000e+00 -5.000000e-01  1.000000e+00
   endloop
 endfacet
endsolid
