solid 
 facet normal -1.000000e+00  0.000000e+00  0.000000e+00
   outer loop
     vertex -3.000000e+00 -1.000000e+00  0.000000e+00
     vertex -3.000000e+00 -2.500000e+00  0.000000e+00
     vertex -3.000000e+00 -2.500000e+00  1.000000e+00
   endloop
 endfacet
 facet normal -1.000000e+00  0.000000e+00  0.000000e+00
   outer loop
     vertex -3.000000e+00 -1.000000e+00  0.000000e+00
     vertex -3.000000e+00 -2.500000e+00  1.000000e+00
     vertex -3.000000e+00 -1.000000e+00  1.000000e+00
   endloop
 endfacet
 facet normal -5.038710e-01  8.637789e-01  0.000000e+00
   outer loop
     vertex  3.000000e+00  2.500000e+00  0.000000e+00
     vertex -3.000000e+00 -1.000000e+00  0.000000e+00
     vertex -3.000000e+00 -1.000000e+00  1.000000e+00
   endloop
 endfacet
 facet normal -5.038710e-01  8.637789e-01  0.000000e+00
   outer loop
     vertex  3.000000e+00  2.500000e+00  0.000000e+00
     vertex -3.000000e+00 -1.000000e+00  1.000000e+00
     vertex  3.000000e+00  2.500000e+00  1.000000e+00
   endloop
 endfacet
 facet normal  1.000000e+00  0.000000e+00  0.000000e+00
   outer loop
     vertex  3.000000e+00  1.000000e+00  0.000000e+00
     vertex  3.000000e+00  2.500000e+00  0.000000e+00
     vertex  3.000000e+00  2.500000e+00  1.000000e+00
   endloop
 endfacet
 facet normal  1.000000e+00  0.000000e+00  0.000000e+00
   outer loop
     vertex  3.000000e+00  1.000000e+00  0.000000e+00
     vertex  3.000000e+00  2.500000e+00  1.000000e+00
     vertex  3.000000e+00  1.000000e+00  1.000000e+00
   endloop
 endfacet
 facet normal  5.038710e-01 -8.637789e-01  0.000000e+00
   outer loop
     vertex -3.000000e+00 -2.500000e+00  0.000000e+00
     vertex  3.000000e+00  1.000000e+00  0.000000e+00
     vertex  3.000000e+00  1.000000e+00  1.000000e+00
   endloop
 endfacet
 facet normal  5.038710e-01 -8.637789e-01  0.000000e+00
   outer loop
     vertex -3.000000e+00 -2.500000e+00  0.000000e+00
     vertex  3.000000e+00  1.000000e+00  1.000000e+00
     vertex -3.000000e+00 -2.500000e+00  1.000000e+00
   endloop
 endfacet
 facet normal  0.000000e+00  0.000000e+00 -1.000000e+00
   outer loop
     vertex -3.000000e+00 -1.000000e+00  0.000000e+00
     vertex  3.000000e+00  2.500000e+00  0.000000e+00
     vertex  3.000000e+00  1.000000e+00  0.000000e+00
   endloop
 endfacet
 facet normal  0.000000e+00  0.000000e+00 -1.000000e+00
   outer loop
     vertex -3.000000e+00 -1.000000e+00  0.000000e+00
     vertex  3.000000e+00  1.000000e+00  0.000000e+00
     vertex -3.000000e+00 -2.500000e+00  0.000000e+00
   endloop
 endfacet
 facet normal  0.000000e+00  0.000000e+00  1.000000e+00
   outer loop
     vertex -3.000000e+00 -1.000000e+00  1.000000e+00
     vertex  3.000000e+00  1.000000e+00  1.000000e+00
     vertex  3.000000e+00  2.500000e+00  1.000000e+00
   endloop
 endfacet
 facet normal -0.000000e+00  0.000000e+00  1.000000e+00
   outer loop
     vertex -3.000000e+00 -1.000000e+00  1.000000e+00
     vertex -3.000000e+00 -2.500000e+00  1.000000e+00
     vertex  3.000000e+00  1.000000e+00  1.000000e+00
   endloop
 endfacet
endsolid
