solid 
 facet normal -8.967361e-01  4.425657e-01  0.000000e+00
   outer loop
     vertex -2.938926e+00 -9.454915e+00 -1.500000e+00
     vertex  0.000000e+00 -3.500000e+00  1.500000e+00
     vertex  0.000000e+00 -3.500000e+00 -1.500000e+00
   endloop
 endfacet
 facet normal -8.967361e-01  4.425657e-01  0.000000e+00
   outer loop
     vertex -2.938926e+00 -9.454915e+00 -1.500000e+00
     vertex -2.938926e+00 -9.454915e+00  1.500000e+00
     vertex  0.000000e+00 -3.500000e+00  1.500000e+00
   endloop
 endfacet
 facet normal -1.437983e-01  9.896070e-01  0.000000e+00
   outer loop
     vertex -9.510565e+00 -1.040983e+01 -1.500000e+00
     vertex -2.938926e+00 -9.454915e+00  1.500000e+00
     vertex -2.938926e+00 -9.454915e+00 -1.500000e+00
   endloop
 endfacet
 facet normal -1.437983e-01  9.896070e-01  0.000000e+00
   outer loop
     vertex -9.510565e+00 -1.040983e+01 -1.500000e+00
     vertex -9.510565e+00 -1.040983e+01  1.500000e+00
     vertex -2.938926e+00 -9.454915e+00  1.500000e+00
   endloop
 endfacet
 facet normal -6.980117e-01 -7.160864e-01  0.000000e+00
   outer loop
     vertex -4.755283e+00 -1.504508e+01 -1.500000e+00
     vertex -9.510565e+00 -1.040983e+01  1.500000e+00
     vertex -9.510565e+00 -1.040983e+01 -1.500000e+00
   endloop
 endfacet
 facet normal -6.980117e-01 -7.160864e-01  0.000000e+00
   outer loop
     vertex -4.755283e+00 -1.504508e+01 -1.500000e+00
     vertex -4.755283e+00 -1.504508e+01  1.500000e+00
     vertex -9.510565e+00 -1.040983e+01  1.500000e+00
   endloop
 endfacet
 facet normal -9.856083e-01  1.690451e-01  0.000000e+00
   outer loop
     vertex -5.877853e+00 -2.159017e+01 -1.500000e+00
     vertex -4.755283e+00 -1.504508e+01  1.500000e+00
     vertex -4.755283e+00 -1.504508e+01 -1.500000e+00
   endloop
 endfacet
 facet normal -9.856083e-01  1.690451e-01  0.000000e+00
   outer loop
     vertex -5.877853e+00 -2.159017e+01 -1.500000e+00
     vertex -5.877853e+00 -2.159017e+01  1.500000e+00
     vertex -4.755283e+00 -1.504508e+01  1.500000e+00
   endloop
 endfacet
 facet normal  4.653411e-01 -8.851314e-01  0.000000e+00
   outer loop
     vertex -1.776357e-15 -1.850000e+01 -1.500000e+00
     vertex -5.877853e+00 -2.159017e+01  1.500000e+00
     vertex -5.877853e+00 -2.159017e+01 -1.500000e+00
   endloop
 endfacet
 facet normal  4.653411e-01 -8.851314e-01  0.000000e+00
   outer loop
     vertex -1.776357e-15 -1.850000e+01 -1.500000e+00
     vertex -1.776357e-15 -1.850000e+01  1.500000e+00
     vertex -5.877853e+00 -2.159017e+01  1.500000e+00
   endloop
 endfacet
 facet normal -4.653411e-01 -8.851314e-01  0.000000e+00
   outer loop
     vertex  5.877853e+00 -2.159017e+01 -1.500000e+00
     vertex -1.776357e-15 -1.850000e+01  1.500000e+00
     vertex -1.776357e-15 -1.850000e+01 -1.500000e+00
   endloop
 endfacet
 facet normal -4.653411e-01 -8.851314e-01  0.000000e+00
   outer loop
     vertex  5.877853e+00 -2.159017e+01 -1.500000e+00
     vertex  5.877853e+00 -2.159017e+01  1.500000e+00
     vertex -1.776357e-15 -1.850000e+01  1.500000e+00
   endloop
 endfacet
 facet normal  9.856083e-01  1.690451e-01  0.000000e+00
   outer loop
     vertex  4.755283e+00 -1.504508e+01 -1.500000e+00
     vertex  5.877853e+00 -2.159017e+01  1.500000e+00
     vertex  5.877853e+00 -2.159017e+01 -1.500000e+00
   endloop
 endfacet
 facet normal  9.856083e-01  1.690451e-01 -0.000000e+00
   outer loop
     vertex  4.755283e+00 -1.504508e+01 -1.500000e+00
     vertex  4.755283e+00 -1.504508e+01  1.500000e+00
     vertex  5.877853e+00 -2.159017e+01  1.500000e+00
   endloop
 endfacet
 facet normal  6.980117e-01 -7.160864e-01  0.000000e+00
   outer loop
     vertex  9.510565e+00 -1.040983e+01 -1.500000e+00
     vertex  4.755283e+00 -1.504508e+01  1.500000e+00
     vertex  4.755283e+00 -1.504508e+01 -1.500000e+00
   endloop
 endfacet
 facet normal  6.980117e-01 -7.160864e-01  0.000000e+00
   outer loop
     vertex  9.510565e+00 -1.040983e+01 -1.500000e+00
     vertex  9.510565e+00 -1.040983e+01  1.500000e+00
     vertex  4.755283e+00 -1.504508e+01  1.500000e+00
   endloop
 endfacet
 facet normal  1.437983e-01  9.896070e-01  0.000000e+00
   outer loop
     vertex  2.938926e+00 -9.454915e+00 -1.500000e+00
     vertex  9.510565e+00 -1.040983e+01  1.500000e+00
     vertex  9.510565e+00 -1.040983e+01 -1.500000e+00
   endloop
 endfacet
 facet normal  1.437983e-01  9.896070e-01 -0.000000e+00
   outer loop
     vertex  2.938926e+00 -9.454915e+00 -1.500000e+00
     vertex  2.938926e+00 -9.454915e+00  1.500000e+00
     vertex  9.510565e+00 -1.040983e+01  1.500000e+00
   endloop
 endfacet
 facet normal  8.967361e-01  4.425657e-01  0.000000e+00
   outer loop
     vertex  0.000000e+00 -3.500000e+00 -1.500000e+00
     vertex  2.938926e+00 -9.454915e+00  1.500000e+00
     vertex  2.938926e+00 -9.454915e+00 -1.500000e+00
   endloop
 endfacet
 facet normal  8.967361e-01  4.425657e-01 -0.000000e+00
   outer loop
     vertex  0.000000e+00 -3.500000e+00 -1.500000e+00
     vertex  0.000000e+00 -3.500000e+00  1.500000e+00
     vertex  2.938926e+00 -9.454915e+00  1.500000e+00
   endloop
 endfacet
 facet normal -0.000000e+00  0.000000e+00 -1.000000e+00
   outer loop
     vertex -1.776357e-15 -1.850000e+01 -1.500000e+00
     vertex -5.877853e+00 -2.159017e+01 -1.500000e+00
     vertex -4.755283e+00 -1.504508e+01 -1.500000e+00
   endloop
 endfacet
 facet normal  0.000000e+00  0.000000e+00 -1.000000e+00
   outer loop
     vertex -2.938926e+00 -9.454915e+00 -1.500000e+00
     vertex -4.755283e+00 -1.504508e+01 -1.500000e+00
     vertex -9.510565e+00 -1.040983e+01 -1.500000e+00
   endloop
 endfacet
 facet normal  0.000000e+00 -0.000000e+00 -1.000000e+00
   outer loop
     vertex  4.755283e+00 -1.504508e+01 -1.500000e+00
     vertex  5.877853e+00 -2.159017e+01 -1.500000e+00
     vertex -1.776357e-15 -1.850000e+01 -1.500000e+00
   endloop
 endfacet
 facet normal  0.000000e+00  0.000000e+00 -1.000000e+00
   outer loop
     vertex  2.938926e+00 -9.454915e+00 -1.500000e+00
     vertex -1.776357e-15 -1.850000e+01 -1.500000e+00
     vertex -4.755283e+00 -1.504508e+01 -1.500000e+00
   endloop
 endfacet
 facet normal -0.000000e+00  0.000000e+00 -1.000000e+00
   outer loop
     vertex  2.938926e+00 -9.454915e+00 -1.500000e+00
     vertex -4.755283e+00 -1.504508e+01 -1.500000e+00
     vertex -2.938926e+00 -9.454915e+00 -1.500000e+00
   endloop
 endfacet
 facet normal  0.000000e+00 -0.000000e+00 -1.000000e+00
   outer loop
     vertex  2.938926e+00 -9.454915e+00 -1.500000e+00
     vertex  4.755283e+00 -1.504508e+01 -1.500000e+00
     vertex -1.776357e-15 -1.850000e+01 -1.500000e+00
   endloop
 endfacet
 facet normal  0.000000e+00 -0.000000e+00 -1.000000e+00
   outer loop
     vertex  0.000000e+00 -3.500000e+00 -1.500000e+00
     vertex  2.938926e+00 -9.454915e+00 -1.500000e+00
     vertex -2.938926e+00 -9.454915e+00 -1.500000e+00
   endloop
 endfacet
 facet normal -0.000000e+00  0.000000e+00 -1.000000e+00
   outer loop
     vertex  9.510565e+00 -1.040983e+01 -1.500000e+00
     vertex  4.755283e+00 -1.504508e+01 -1.500000e+00
     vertex  2.938926e+00 -9.454915e+00 -1.500000e+00
   endloop
 endfacet
 facet normal  0.000000e+00  0.000000e+00  1.000000e+00
   outer loop
     vertex -1.776357e-15 -1.850000e+01  1.500000e+00
     vertex -4.755283e+00 -1.504508e+01  1.500000e+00
     vertex -5.877853e+00 -2.159017e+01  1.500000e+00
   endloop
 endfacet
 facet normal  0.000000e+00  0.000000e+00  1.000000e+00
   outer loop
     vertex -2.938926e+00 -9.454915e+00  1.500000e+00
     vertex -9.510565e+00 -1.040983e+01  1.500000e+00
     vertex -4.755283e+00 -1.504508e+01  1.500000e+00
   endloop
 endfacet
 facet normal  0.000000e+00  0.000000e+00  1.000000e+00
   outer loop
     vertex  4.755283e+00 -1.504508e+01  1.500000e+00
     vertex -1.776357e-15 -1.850000e+01  1.500000e+00
     vertex  5.877853e+00 -2.159017e+01  1.500000e+00
   endloop
 endfacet
 facet normal  0.000000e+00  0.000000e+00  1.000000e+00
   outer loop
     vertex  2.938926e+00 -9.454915e+00  1.500000e+00
     vertex -4.755283e+00 -1.504508e+01  1.500000e+00
     vertex -1.776357e-15 -1.850000e+01  1.500000e+00
   endloop
 endfacet
 facet normal  0.000000e+00  0.000000e+00  1.000000e+00
   outer loop
     vertex  2.938926e+00 -9.454915e+00  1.500000e+00
     vertex -2.938926e+00 -9.454915e+00  1.500000e+00
     vertex -4.755283e+00 -1.504508e+01  1.500000e+00
   endloop
 endfacet
 facet normal  0.000000e+00  0.000000e+00  1.000000e+00
   outer loop
     vertex  2.938926e+00 -9.454915e+00  1.500000e+00
     vertex -1.776357e-15 -1.850000e+01  1.500000e+00
     vertex  4.755283e+00 -1.504508e+01  1.500000e+00
   endloop
 endfacet
 facet normal  0.000000e+00  0.000000e+00  1.000000e+00
   outer loop
     vertex  0.000000e+00 -3.500000e+00  1.500000e+00
     vertex -2.938926e+00 -9.454915e+00  1.500000e+00
     vertex  2.938926e+00 -9.454915e+00  1.500000e+00
   endloop
 endfacet
 facet normal  0.000000e+00  0.000000e+00  1.000000e+00
   outer loop
     vertex  9.510565e+00 -1.040983e+01  1.500000e+00
     vertex  2.938926e+00 -9.454915e+00  1.500000e+00
     vertex  4.755283e+00 -1.504508e+01  1.500000e+00
   endloop
 endfacet
 facet normal -8.967361e-01  4.425657e-01  0.000000e+00
   outer loop
     vertex -2.938926e+00 -4.549150e-01 -1.500000e+00
     vertex  0.000000e+00  5.500000e+00  1.500000e+00
     vertex  0.000000e+00  5.500000e+00 -1.500000e+00
   endloop
 endfacet
 facet normal -8.967361e-01  4.425657e-01  0.000000e+00
   outer loop
     vertex -2.938926e+00 -4.549150e-01 -1.500000e+00
     vertex -2.938926e+00 -4.549150e-01  1.500000e+00
     vertex  0.000000e+00  5.500000e+00  1.500000e+00
   endloop
 endfacet
 facet normal -1.437983e-01  9.896070e-01  0.000000e+00
   outer loop
     vertex -9.510565e+00 -1.409830e+00 -1.500000e+00
     vertex -2.938926e+00 -4.549150e-01  1.500000e+00
     vertex -2.938926e+00 -4.549150e-01 -1.500000e+00
   endloop
 endfacet
 facet normal -1.437983e-01  9.896070e-01  0.000000e+00
   outer loop
     vertex -9.510565e+00 -1.409830e+00 -1.500000e+00
     vertex -9.510565e+00 -1.409830e+00  1.500000e+00
     vertex -2.938926e+00 -4.549150e-01  1.500000e+00
   endloop
 endfacet
 facet normal -6.980117e-01 -7.160864e-01  0.000000e+00
   outer loop
     vertex -4.755283e+00 -6.045085e+00 -1.500000e+00
     vertex -9.510565e+00 -1.409830e+00  1.500000e+00
     vertex -9.510565e+00 -1.409830e+00 -1.500000e+00
   endloop
 endfacet
 facet normal -6.980117e-01 -7.160864e-01  0.000000e+00
   outer loop
     vertex -4.755283e+00 -6.045085e+00 -1.500000e+00
     vertex -4.755283e+00 -6.045085e+00  1.500000e+00
     vertex -9.510565e+00 -1.409830e+00  1.500000e+00
   endloop
 endfacet
 facet normal -9.856083e-01  1.690451e-01  0.000000e+00
   outer loop
     vertex -5.877853e+00 -1.259017e+01 -1.500000e+00
     vertex -4.755283e+00 -6.045085e+00  1.500000e+00
     vertex -4.755283e+00 -6.045085e+00 -1.500000e+00
   endloop
 endfacet
 facet normal -9.856083e-01  1.690451e-01  0.000000e+00
   outer loop
     vertex -5.877853e+00 -1.259017e+01 -1.500000e+00
     vertex -5.877853e+00 -1.259017e+01  1.500000e+00
     vertex -4.755283e+00 -6.045085e+00  1.500000e+00
   endloop
 endfacet
 facet normal  4.653411e-01 -8.851314e-01  0.000000e+00
   outer loop
     vertex -1.776357e-15 -9.500000e+00 -1.500000e+00
     vertex -5.877853e+00 -1.259017e+01  1.500000e+00
     vertex -5.877853e+00 -1.259017e+01 -1.500000e+00
   endloop
 endfacet
 facet normal  4.653411e-01 -8.851314e-01  0.000000e+00
   outer loop
     vertex -1.776357e-15 -9.500000e+00 -1.500000e+00
     vertex -1.776357e-15 -9.500000e+00  1.500000e+00
     vertex -5.877853e+00 -1.259017e+01  1.500000e+00
   endloop
 endfacet
 facet normal -4.653411e-01 -8.851314e-01  0.000000e+00
   outer loop
     vertex  5.877853e+00 -1.259017e+01 -1.500000e+00
     vertex -1.776357e-15 -9.500000e+00  1.500000e+00
     vertex -1.776357e-15 -9.500000e+00 -1.500000e+00
   endloop
 endfacet
 facet normal -4.653411e-01 -8.851314e-01  0.000000e+00
   outer loop
     vertex  5.877853e+00 -1.259017e+01 -1.500000e+00
     vertex  5.877853e+00 -1.259017e+01  1.500000e+00
     vertex -1.776357e-15 -9.500000e+00  1.500000e+00
   endloop
 endfacet
 facet normal  9.856083e-01  1.690451e-01  0.000000e+00
   outer loop
     vertex  4.755283e+00 -6.045085e+00 -1.500000e+00
     vertex  5.877853e+00 -1.259017e+01  1.500000e+00
     vertex  5.877853e+00 -1.259017e+01 -1.500000e+00
   endloop
 endfacet
 facet normal  9.856083e-01  1.690451e-01 -0.000000e+00
   outer loop
     vertex  4.755283e+00 -6.045085e+00 -1.500000e+00
     vertex  4.755283e+00 -6.045085e+00  1.500000e+00
     vertex  5.877853e+00 -1.259017e+01  1.500000e+00
   endloop
 endfacet
 facet normal  6.980117e-01 -7.160864e-01  0.000000e+00
   outer loop
     vertex  9.510565e+00 -1.409830e+00 -1.500000e+00
     vertex  4.755283e+00 -6.045085e+00  1.500000e+00
     vertex  4.755283e+00 -6.045085e+00 -1.500000e+00
   endloop
 endfacet
 facet normal  6.980117e-01 -7.160864e-01  0.000000e+00
   outer loop
     vertex  9.510565e+00 -1.409830e+00 -1.500000e+00
     vertex  9.510565e+00 -1.409830e+00  1.500000e+00
     vertex  4.755283e+00 -6.045085e+00  1.500000e+00
   endloop
 endfacet
 facet normal  1.437983e-01  9.896070e-01  0.000000e+00
   outer loop
     vertex  2.938926e+00 -4.549150e-01 -1.500000e+00
     vertex  9.510565e+00 -1.409830e+00  1.500000e+00
     vertex  9.510565e+00 -1.409830e+00 -1.500000e+00
   endloop
 endfacet
 facet normal  1.437983e-01  9.896070e-01 -0.000000e+00
   outer loop
     vertex  2.938926e+00 -4.549150e-01 -1.500000e+00
     vertex  2.938926e+00 -4.549150e-01  1.500000e+00
     vertex  9.510565e+00 -1.409830e+00  1.500000e+00
   endloop
 endfacet
 facet normal  8.967361e-01  4.425657e-01  0.000000e+00
   outer loop
     vertex  0.000000e+00  5.500000e+00 -1.500000e+00
     vertex  2.938926e+00 -4.549150e-01  1.500000e+00
     vertex  2.938926e+00 -4.549150e-01 -1.500000e+00
   endloop
 endfacet
 facet normal  8.967361e-01  4.425657e-01 -0.000000e+00
   outer loop
     vertex  0.000000e+00  5.500000e+00 -1.500000e+00
     vertex  0.000000e+00  5.500000e+00  1.500000e+00
     vertex  2.938926e+00 -4.549150e-01  1.500000e+00
   endloop
 endfacet
 facet normal -0.000000e+00  0.000000e+00 -1.000000e+00
   outer loop
     vertex -1.776357e-15 -9.500000e+00 -1.500000e+00
     vertex -5.877853e+00 -1.259017e+01 -1.500000e+00
     vertex -4.755283e+00 -6.045085e+00 -1.500000e+00
   endloop
 endfacet
 facet normal  0.000000e+00  0.000000e+00 -1.000000e+00
   outer loop
     vertex -2.938926e+00 -4.549150e-01 -1.500000e+00
     vertex -4.755283e+00 -6.045085e+00 -1.500000e+00
     vertex -9.510565e+00 -1.409830e+00 -1.500000e+00
   endloop
 endfacet
 facet normal  0.000000e+00 -0.000000e+00 -1.000000e+00
   outer loop
     vertex  4.755283e+00 -6.045085e+00 -1.500000e+00
     vertex  5.877853e+00 -1.259017e+01 -1.500000e+00
     vertex -1.776357e-15 -9.500000e+00 -1.500000e+00
   endloop
 endfacet
 facet normal  0.000000e+00  0.000000e+00 -1.000000e+00
   outer loop
     vertex  2.938926e+00 -4.549150e-01 -1.500000e+00
     vertex -1.776357e-15 -9.500000e+00 -1.500000e+00
     vertex -4.755283e+00 -6.045085e+00 -1.500000e+00
   endloop
 endfacet
 facet normal -0.000000e+00  0.000000e+00 -1.000000e+00
   outer loop
     vertex  2.938926e+00 -4.549150e-01 -1.500000e+00
     vertex -4.755283e+00 -6.045085e+00 -1.500000e+00
     vertex -2.938926e+00 -4.549150e-01 -1.500000e+00
   endloop
 endfacet
 facet normal  0.000000e+00 -0.000000e+00 -1.000000e+00
   outer loop
     vertex  2.938926e+00 -4.549150e-01 -1.500000e+00
     vertex  4.755283e+00 -6.045085e+00 -1.500000e+00
     vertex -1.776357e-15 -9.500000e+00 -1.500000e+00
   endloop
 endfacet
 facet normal  0.000000e+00 -0.000000e+00 -1.000000e+00
   outer loop
     vertex  0.000000e+00  5.500000e+00 -1.500000e+00
     vertex  2.938926e+00 -4.549150e-01 -1.500000e+00
     vertex -2.938926e+00 -4.549150e-01 -1.500000e+00
   endloop
 endfacet
 facet normal -0.000000e+00  0.000000e+00 -1.000000e+00
   outer loop
     vertex  9.510565e+00 -1.409830e+00 -1.500000e+00
     vertex  4.755283e+00 -6.045085e+00 -1.500000e+00
     vertex  2.938926e+00 -4.549150e-01 -1.500000e+00
   endloop
 endfacet
 facet normal  0.000000e+00  0.000000e+00  1.000000e+00
   outer loop
     vertex -1.776357e-15 -9.500000e+00  1.500000e+00
     vertex -4.755283e+00 -6.045085e+00  1.500000e+00
     vertex -5.877853e+00 -1.259017e+01  1.500000e+00
   endloop
 endfacet
 facet normal  0.000000e+00  0.000000e+00  1.000000e+00
   outer loop
     vertex -2.938926e+00 -4.549150e-01  1.500000e+00
     vertex -9.510565e+00 -1.409830e+00  1.500000e+00
     vertex -4.755283e+00 -6.045085e+00  1.500000e+00
   endloop
 endfacet
 facet normal  0.000000e+00  0.000000e+00  1.000000e+00
   outer loop
     vertex  4.755283e+00 -6.045085e+00  1.500000e+00
     vertex -1.776357e-15 -9.500000e+00  1.500000e+00
     vertex  5.877853e+00 -1.259017e+01  1.500000e+00
   endloop
 endfacet
 facet normal  0.000000e+00  0.000000e+00  1.000000e+00
   outer loop
     vertex  2.938926e+00 -4.549150e-01  1.500000e+00
     vertex -4.755283e+00 -6.045085e+00  1.500000e+00
     vertex -1.776357e-15 -9.500000e+00  1.500000e+00
   endloop
 endfacet
 facet normal  0.000000e+00  0.000000e+00  1.000000e+00
   outer loop
     vertex  2.938926e+00 -4.549150e-01  1.500000e+00
     vertex -2.938926e+00 -4.549150e-01  1.500000e+00
     vertex -4.755283e+00 -6.045085e+00  1.500000e+00
   endloop
 endfacet
 facet normal  0.000000e+00  0.000000e+00  1.000000e+00
   outer loop
     vertex  2.938926e+00 -4.549150e-01  1.500000e+00
     vertex -1.776357e-15 -9.500000e+00  1.500000e+00
     vertex  4.755283e+00 -6.045085e+00  1.500000e+00
   endloop
 endfacet
 facet normal  0.000000e+00  0.000000e+00  1.000000e+00
   outer loop
     vertex  0.000000e+00  5.500000e+00  1.500000e+00
     vertex -2.938926e+00 -4.549150e-01  1.500000e+00
     vertex  2.938926e+00 -4.549150e-01  1.500000e+00
   endloop
 endfacet
 facet normal  0.000000e+00  0.000000e+00  1.000000e+00
   outer loop
     vertex  9.510565e+00 -1.409830e+00  1.500000e+00
     vertex  2.938926e+00 -4.549150e-01  1.500000e+00
     vertex  4.755283e+00 -6.045085e+00  1.500000e+00
   endloop
 endfacet
 facet normal -8.967361e-01  4.425657e-01  0.000000e+00
   outer loop
     vertex -2.938926e+00  8.545085e+00 -1.500000e+00
     vertex  0.000000e+00  1.450000e+01  1.500000e+00
     vertex  0.000000e+00  1.450000e+01 -1.500000e+00
   endloop
 endfacet
 facet normal -8.967361e-01  4.425657e-01  0.000000e+00
   outer loop
     vertex -2.938926e+00  8.545085e+00 -1.500000e+00
     vertex -2.938926e+00  8.545085e+00  1.500000e+00
     vertex  0.000000e+00  1.450000e+01  1.500000e+00
   endloop
 endfacet
 facet normal -1.437983e-01  9.896070e-01  0.000000e+00
   outer loop
     vertex -9.510565e+00  7.590170e+00 -1.500000e+00
     vertex -2.938926e+00  8.545085e+00  1.500000e+00
     vertex -2.938926e+00  8.545085e+00 -1.500000e+00
   endloop
 endfacet
 facet normal -1.437983e-01  9.896070e-01  0.000000e+00
   outer loop
     vertex -9.510565e+00  7.590170e+00 -1.500000e+00
     vertex -9.510565e+00  7.590170e+00  1.500000e+00
     vertex -2.938926e+00  8.545085e+00  1.500000e+00
   endloop
 endfacet
 facet normal -6.980117e-01 -7.160864e-01  0.000000e+00
   outer loop
     vertex -4.755283e+00  2.954915e+00 -1.500000e+00
     vertex -9.510565e+00  7.590170e+00  1.500000e+00
     vertex -9.510565e+00  7.590170e+00 -1.500000e+00
   endloop
 endfacet
 facet normal -6.980117e-01 -7.160864e-01  0.000000e+00
   outer loop
     vertex -4.755283e+00  2.954915e+00 -1.500000e+00
     vertex -4.755283e+00  2.954915e+00  1.500000e+00
     vertex -9.510565e+00  7.590170e+00  1.500000e+00
   endloop
 endfacet
 facet normal -9.856083e-01  1.690451e-01  0.000000e+00
   outer loop
     vertex -5.877853e+00 -3.590170e+00 -1.500000e+00
     vertex -4.755283e+00  2.954915e+00  1.500000e+00
     vertex -4.755283e+00  2.954915e+00 -1.500000e+00
   endloop
 endfacet
 facet normal -9.856083e-01  1.690451e-01  0.000000e+00
   outer loop
     vertex -5.877853e+00 -3.590170e+00 -1.500000e+00
     vertex -5.877853e+00 -3.590170e+00  1.500000e+00
     vertex -4.755283e+00  2.954915e+00  1.500000e+00
   endloop
 endfacet
 facet normal  4.653411e-01 -8.851314e-01  0.000000e+00
   outer loop
     vertex -1.776357e-15 -5.000000e-01 -1.500000e+00
     vertex -5.877853e+00 -3.590170e+00  1.500000e+00
     vertex -5.877853e+00 -3.590170e+00 -1.500000e+00
   endloop
 endfacet
 facet normal  4.653411e-01 -8.851314e-01  0.000000e+00
   outer loop
     vertex -1.776357e-15 -5.000000e-01 -1.500000e+00
     vertex -1.776357e-15 -5.000000e-01  1.500000e+00
     vertex -5.877853e+00 -3.590170e+00  1.500000e+00
   endloop
 endfacet
 facet normal -4.653411e-01 -8.851314e-01  0.000000e+00
   outer loop
     vertex  5.877853e+00 -3.590170e+00 -1.500000e+00
     vertex -1.776357e-15 -5.000000e-01  1.500000e+00
     vertex -1.776357e-15 -5.000000e-01 -1.500000e+00
   endloop
 endfacet
 facet normal -4.653411e-01 -8.851314e-01  0.000000e+00
   outer loop
     vertex  5.877853e+00 -3.590170e+00 -1.500000e+00
     vertex  5.877853e+00 -3.590170e+00  1.500000e+00
     vertex -1.776357e-15 -5.000000e-01  1.500000e+00
   endloop
 endfacet
 facet normal  9.856083e-01  1.690451e-01  0.000000e+00
   outer loop
     vertex  4.755283e+00  2.954915e+00 -1.500000e+00
     vertex  5.877853e+00 -3.590170e+00  1.500000e+00
     vertex  5.877853e+00 -3.590170e+00 -1.500000e+00
   endloop
 endfacet
 facet normal  9.856083e-01  1.690451e-01 -0.000000e+00
   outer loop
     vertex  4.755283e+00  2.954915e+00 -1.500000e+00
     vertex  4.755283e+00  2.954915e+00  1.500000e+00
     vertex  5.877853e+00 -3.590170e+00  1.500000e+00
   endloop
 endfacet
 facet normal  6.980117e-01 -7.160864e-01  0.000000e+00
   outer loop
     vertex  9.510565e+00  7.590170e+00 -1.500000e+00
     vertex  4.755283e+00  2.954915e+00  1.500000e+00
     vertex  4.755283e+00  2.954915e+00 -1.500000e+00
   endloop
 endfacet
 facet normal  6.980117e-01 -7.160864e-01  0.000000e+00
   outer loop
     vertex  9.510565e+00  7.590170e+00 -1.500000e+00
     vertex  9.510565e+00  7.590170e+00  1.500000e+00
     vertex  4.755283e+00  2.954915e+00  1.500000e+00
   endloop
 endfacet
 facet normal  1.437983e-01  9.896070e-01  0.000000e+00
   outer loop
     vertex  2.938926e+00  8.545085e+00 -1.500000e+00
     vertex  9.510565e+00  7.590170e+00  1.500000e+00
     vertex  9.510565e+00  7.590170e+00 -1.500000e+00
   endloop
 endfacet
 facet normal  1.437983e-01  9.896070e-01 -0.000000e+00
   outer loop
     vertex  2.938926e+00  8.545085e+00 -1.500000e+00
     vertex  2.938926e+00  8.545085e+00  1.500000e+00
     vertex  9.510565e+00  7.590170e+00  1.500000e+00
   endloop
 endfacet
 facet normal  8.967361e-01  4.425657e-01  0.000000e+00
   outer loop
     vertex  0.000000e+00  1.450000e+01 -1.500000e+00
     vertex  2.938926e+00  8.545085e+00  1.500000e+00
     vertex  2.938926e+00  8.545085e+00 -1.500000e+00
   endloop
 endfacet
 facet normal  8.967361e-01  4.425657e-01 -0.000000e+00
   outer loop
     vertex  0.000000e+00  1.450000e+01 -1.500000e+00
     vertex  0.000000e+00  1.450000e+01  1.500000e+00
     vertex  2.938926e+00  8.545085e+00  1.500000e+00
   endloop
 endfacet
 facet normal -0.000000e+00  0.000000e+00 -1.000000e+00
   outer loop
     vertex -1.776357e-15 -5.000000e-01 -1.500000e+00
     vertex -5.877853e+00 -3.590170e+00 -1.500000e+00
     vertex -4.755283e+00  2.954915e+00 -1.500000e+00
   endloop
 endfacet
 facet normal  0.000000e+00  0.000000e+00 -1.000000e+00
   outer loop
     vertex -2.938926e+00  8.545085e+00 -1.500000e+00
     vertex -4.755283e+00  2.954915e+00 -1.500000e+00
     vertex -9.510565e+00  7.590170e+00 -1.500000e+00
   endloop
 endfacet
 facet normal  0.000000e+00 -0.000000e+00 -1.000000e+00
   outer loop
     vertex  4.755283e+00  2.954915e+00 -1.500000e+00
     vertex  5.877853e+00 -3.590170e+00 -1.500000e+00
     vertex -1.776357e-15 -5.000000e-01 -1.500000e+00
   endloop
 endfacet
 facet normal  0.000000e+00  0.000000e+00 -1.000000e+00
   outer loop
     vertex  2.938926e+00  8.545085e+00 -1.500000e+00
     vertex -1.776357e-15 -5.000000e-01 -1.500000e+00
     vertex -4.755283e+00  2.954915e+00 -1.500000e+00
   endloop
 endfacet
 facet normal -0.000000e+00  0.000000e+00 -1.000000e+00
   outer loop
     vertex  2.938926e+00  8.545085e+00 -1.500000e+00
     vertex -4.755283e+00  2.954915e+00 -1.500000e+00
     vertex -2.938926e+00  8.545085e+00 -1.500000e+00
   endloop
 endfacet
 facet normal  0.000000e+00 -0.000000e+00 -1.000000e+00
   outer loop
     vertex  2.938926e+00  8.545085e+00 -1.500000e+00
     vertex  4.755283e+00  2.954915e+00 -1.500000e+00
     vertex -1.776357e-15 -5.000000e-01 -1.500000e+00
   endloop
 endfacet
 facet normal  0.000000e+00 -0.000000e+00 -1.000000e+00
   outer loop
     vertex  0.000000e+00  1.450000e+01 -1.500000e+00
     vertex  2.938926e+00  8.545085e+00 -1.500000e+00
     vertex -2.938926e+00  8.545085e+00 -1.500000e+00
   endloop
 endfacet
 facet normal -0.000000e+00  0.000000e+00 -1.000000e+00
   outer loop
     vertex  9.510565e+00  7.590170e+00 -1.500000e+00
     vertex  4.755283e+00  2.954915e+00 -1.500000e+00
     vertex  2.938926e+00  8.545085e+00 -1.500000e+00
   endloop
 endfacet
 facet normal  0.000000e+00  0.000000e+00  1.000000e+00
   outer loop
     vertex -1.776357e-15 -5.000000e-01  1.500000e+00
     vertex -4.755283e+00  2.954915e+00  1.500000e+00
     vertex -5.877853e+00 -3.590170e+00  1.500000e+00
   endloop
 endfacet
 facet normal  0.000000e+00  0.000000e+00  1.000000e+00
   outer loop
     vertex -2.938926e+00  8.545085e+00  1.500000e+00
     vertex -9.510565e+00  7.590170e+00  1.500000e+00
     vertex -4.755283e+00  2.954915e+00  1.500000e+00
   endloop
 endfacet
 facet normal  0.000000e+00  0.000000e+00  1.000000e+00
   outer loop
     vertex  4.755283e+00  2.954915e+00  1.500000e+00
     vertex -1.776357e-15 -5.000000e-01  1.500000e+00
     vertex  5.877853e+00 -3.590170e+00  1.500000e+00
   endloop
 endfacet
 facet normal  0.000000e+00  0.000000e+00  1.000000e+00
   outer loop
     vertex  2.938926e+00  8.545085e+00  1.500000e+00
     vertex -4.755283e+00  2.954915e+00  1.500000e+00
     vertex -1.776357e-15 -5.000000e-01  1.500000e+00
   endloop
 endfacet
 facet normal  0.000000e+00  0.000000e+00  1.000000e+00
   outer loop
     vertex  2.938926e+00  8.545085e+00  1.500000e+00
     vertex -2.938926e+00  8.545085e+00  1.500000e+00
     vertex -4.755283e+00  2.954915e+00  1.500000e+00
   endloop
 endfacet
 facet normal  0.000000e+00  0.000000e+00  1.000000e+00
   outer loop
     vertex  2.938926e+00  8.545085e+00  1.500000e+00
     vertex -1.776357e-15 -5.000000e-01  1.500000e+00
     vertex  4.755283e+00  2.954915e+00  1.500000e+00
   endloop
 endfacet
 facet normal  0.000000e+00  0.000000e+00  1.000000e+00
   outer loop
     vertex  0.000000e+00  1.450000e+01  1.500000e+00
     vertex -2.938926e+00  8.545085e+00  1.500000e+00
     vertex  2.938926e+00  8.545085e+00  1.500000e+00
   endloop
 endfacet
 facet normal  0.000000e+00  0.000000e+00  1.000000e+00
   outer loop
     vertex  9.510565e+00  7.590170e+00  1.500000e+00
     vertex  2.938926e+00  8.545085e+00  1.500000e+00
     vertex  4.755283e+00  2.954915e+00  1.500000e+00
   endloop
 endfacet
 facet normal -8.967361e-01  4.425657e-01  0.000000e+00
   outer loop
     vertex -2.938926e+00  1.754508e+01 -1.500000e+00
     vertex  0.000000e+00  2.350000e+01  1.500000e+00
     vertex  0.000000e+00  2.350000e+01 -1.500000e+00
   endloop
 endfacet
 facet normal -8.967361e-01  4.425657e-01  0.000000e+00
   outer loop
     vertex -2.938926e+00  1.754508e+01 -1.500000e+00
     vertex -2.938926e+00  1.754508e+01  1.500000e+00
     vertex  0.000000e+00  2.350000e+01  1.500000e+00
   endloop
 endfacet
 facet normal -1.437983e-01  9.896070e-01  0.000000e+00
   outer loop
     vertex -9.510565e+00  1.659017e+01 -1.500000e+00
     vertex -2.938926e+00  1.754508e+01  1.500000e+00
     vertex -2.938926e+00  1.754508e+01 -1.500000e+00
   endloop
 endfacet
 facet normal -1.437983e-01  9.896070e-01  0.000000e+00
   outer loop
     vertex -9.510565e+00  1.659017e+01 -1.500000e+00
     vertex -9.510565e+00  1.659017e+01  1.500000e+00
     vertex -2.938926e+00  1.754508e+01  1.500000e+00
   endloop
 endfacet
 facet normal -6.980117e-01 -7.160864e-01  0.000000e+00
   outer loop
     vertex -4.755283e+00  1.195492e+01 -1.500000e+00
     vertex -9.510565e+00  1.659017e+01  1.500000e+00
     vertex -9.510565e+00  1.659017e+01 -1.500000e+00
   endloop
 endfacet
 facet normal -6.980117e-01 -7.160864e-01  0.000000e+00
   outer loop
     vertex -4.755283e+00  1.195492e+01 -1.500000e+00
     vertex -4.755283e+00  1.195492e+01  1.500000e+00
     vertex -9.510565e+00  1.659017e+01  1.500000e+00
   endloop
 endfacet
 facet normal -9.856083e-01  1.690451e-01  0.000000e+00
   outer loop
     vertex -5.877853e+00  5.409830e+00 -1.500000e+00
     vertex -4.755283e+00  1.195492e+01  1.500000e+00
     vertex -4.755283e+00  1.195492e+01 -1.500000e+00
   endloop
 endfacet
 facet normal -9.856083e-01  1.690451e-01  0.000000e+00
   outer loop
     vertex -5.877853e+00  5.409830e+00 -1.500000e+00
     vertex -5.877853e+00  5.409830e+00  1.500000e+00
     vertex -4.755283e+00  1.195492e+01  1.500000e+00
   endloop
 endfacet
 facet normal  4.653411e-01 -8.851314e-01  0.000000e+00
   outer loop
     vertex -1.776357e-15  8.500000e+00 -1.500000e+00
     vertex -5.877853e+00  5.409830e+00  1.500000e+00
     vertex -5.877853e+00  5.409830e+00 -1.500000e+00
   endloop
 endfacet
 facet normal  4.653411e-01 -8.851314e-01  0.000000e+00
   outer loop
     vertex -1.776357e-15  8.500000e+00 -1.500000e+00
     vertex -1.776357e-15  8.500000e+00  1.500000e+00
     vertex -5.877853e+00  5.409830e+00  1.500000e+00
   endloop
 endfacet
 facet normal -4.653411e-01 -8.851314e-01  0.000000e+00
   outer loop
     vertex  5.877853e+00  5.409830e+00 -1.500000e+00
     vertex -1.776357e-15  8.500000e+00  1.500000e+00
     vertex -1.776357e-15  8.500000e+00 -1.500000e+00
   endloop
 endfacet
 facet normal -4.653411e-01 -8.851314e-01  0.000000e+00
   outer loop
     vertex  5.877853e+00  5.409830e+00 -1.500000e+00
     vertex  5.877853e+00  5.409830e+00  1.500000e+00
     vertex -1.776357e-15  8.500000e+00  1.500000e+00
   endloop
 endfacet
 facet normal  9.856083e-01  1.690451e-01  0.000000e+00
   outer loop
     vertex  4.755283e+00  1.195492e+01 -1.500000e+00
     vertex  5.877853e+00  5.409830e+00  1.500000e+00
     vertex  5.877853e+00  5.409830e+00 -1.500000e+00
   endloop
 endfacet
 facet normal  9.856083e-01  1.690451e-01 -0.000000e+00
   outer loop
     vertex  4.755283e+00  1.195492e+01 -1.500000e+00
     vertex  4.755283e+00  1.195492e+01  1.500000e+00
     vertex  5.877853e+00  5.409830e+00  1.500000e+00
   endloop
 endfacet
 facet normal  6.980117e-01 -7.160864e-01  0.000000e+00
   outer loop
     vertex  9.510565e+00  1.659017e+01 -1.500000e+00
     vertex  4.755283e+00  1.195492e+01  1.500000e+00
     vertex  4.755283e+00  1.195492e+01 -1.500000e+00
   endloop
 endfacet
 facet normal  6.980117e-01 -7.160864e-01  0.000000e+00
   outer loop
     vertex  9.510565e+00  1.659017e+01 -1.500000e+00
     vertex  9.510565e+00  1.659017e+01  1.500000e+00
     vertex  4.755283e+00  1.195492e+01  1.500000e+00
   endloop
 endfacet
 facet normal  1.437983e-01  9.896070e-01  0.000000e+00
   outer loop
     vertex  2.938926e+00  1.754508e+01 -1.500000e+00
     vertex  9.510565e+00  1.659017e+01  1.500000e+00
     vertex  9.510565e+00  1.659017e+01 -1.500000e+00
   endloop
 endfacet
 facet normal  1.437983e-01  9.896070e-01 -0.000000e+00
   outer loop
     vertex  2.938926e+00  1.754508e+01 -1.500000e+00
     vertex  2.938926e+00  1.754508e+01  1.500000e+00
     vertex  9.510565e+00  1.659017e+01  1.500000e+00
   endloop
 endfacet
 facet normal  8.967361e-01  4.425657e-01  0.000000e+00
   outer loop
     vertex  0.000000e+00  2.350000e+01 -1.500000e+00
     vertex  2.938926e+00  1.754508e+01  1.500000e+00
     vertex  2.938926e+00  1.754508e+01 -1.500000e+00
   endloop
 endfacet
 facet normal  8.967361e-01  4.425657e-01 -0.000000e+00
   outer loop
     vertex  0.000000e+00  2.350000e+01 -1.500000e+00
     vertex  0.000000e+00  2.350000e+01  1.500000e+00
     vertex  2.938926e+00  1.754508e+01  1.500000e+00
   endloop
 endfacet
 facet normal -0.000000e+00  0.000000e+00 -1.000000e+00
   outer loop
     vertex -1.776357e-15  8.500000e+00 -1.500000e+00
     vertex -5.877853e+00  5.409830e+00 -1.500000e+00
     vertex -4.755283e+00  1.195492e+01 -1.500000e+00
   endloop
 endfacet
 facet normal  0.000000e+00  0.000000e+00 -1.000000e+00
   outer loop
     vertex -2.938926e+00  1.754508e+01 -1.500000e+00
     vertex -4.755283e+00  1.195492e+01 -1.500000e+00
     vertex -9.510565e+00  1.659017e+01 -1.500000e+00
   endloop
 endfacet
 facet normal  0.000000e+00 -0.000000e+00 -1.000000e+00
   outer loop
     vertex -2.938926e+00  1.754508e+01 -1.500000e+00
     vertex -1.776357e-15  8.500000e+00 -1.500000e+00
     vertex -4.755283e+00  1.195492e+01 -1.500000e+00
   endloop
 endfacet
 facet normal  0.000000e+00 -0.000000e+00 -1.000000e+00
   outer loop
     vertex  4.755283e+00  1.195492e+01 -1.500000e+00
     vertex  5.877853e+00  5.409830e+00 -1.500000e+00
     vertex -1.776357e-15  8.500000e+00 -1.500000e+00
   endloop
 endfacet
 facet normal -0.000000e+00  0.000000e+00 -1.000000e+00
   outer loop
     vertex  2.938926e+00  1.754508e+01 -1.500000e+00
     vertex -1.776357e-15  8.500000e+00 -1.500000e+00
     vertex -2.938926e+00  1.754508e+01 -1.500000e+00
   endloop
 endfacet
 facet normal  0.000000e+00 -0.000000e+00 -1.000000e+00
   outer loop
     vertex  2.938926e+00  1.754508e+01 -1.500000e+00
     vertex  4.755283e+00  1.195492e+01 -1.500000e+00
     vertex -1.776357e-15  8.500000e+00 -1.500000e+00
   endloop
 endfacet
 facet normal  0.000000e+00 -0.000000e+00 -1.000000e+00
   outer loop
     vertex  0.000000e+00  2.350000e+01 -1.500000e+00
     vertex  2.938926e+00  1.754508e+01 -1.500000e+00
     vertex -2.938926e+00  1.754508e+01 -1.500000e+00
   endloop
 endfacet
 facet normal -0.000000e+00  0.000000e+00 -1.000000e+00
   outer loop
     vertex  9.510565e+00  1.659017e+01 -1.500000e+00
     vertex  4.755283e+00  1.195492e+01 -1.500000e+00
     vertex  2.938926e+00  1.754508e+01 -1.500000e+00
   endloop
 endfacet
 facet normal  0.000000e+00  0.000000e+00  1.000000e+00
   outer loop
     vertex -1.776357e-15  8.500000e+00  1.500000e+00
     vertex -4.755283e+00  1.195492e+01  1.500000e+00
     vertex -5.877853e+00  5.409830e+00  1.500000e+00
   endloop
 endfacet
 facet normal  0.000000e+00  0.000000e+00  1.000000e+00
   outer loop
     vertex -2.938926e+00  1.754508e+01  1.500000e+00
     vertex -9.510565e+00  1.659017e+01  1.500000e+00
     vertex -4.755283e+00  1.195492e+01  1.500000e+00
   endloop
 endfacet
 facet normal  0.000000e+00  0.000000e+00  1.000000e+00
   outer loop
     vertex -2.938926e+00  1.754508e+01  1.500000e+00
     vertex -4.755283e+00  1.195492e+01  1.500000e+00
     vertex -1.776357e-15  8.500000e+00  1.500000e+00
   endloop
 endfacet
 facet normal  0.000000e+00  0.000000e+00  1.000000e+00
   outer loop
     vertex  4.755283e+00  1.195492e+01  1.500000e+00
     vertex -1.776357e-15  8.500000e+00  1.500000e+00
     vertex  5.877853e+00  5.409830e+00  1.500000e+00
   endloop
 endfacet
 facet normal  0.000000e+00  0.000000e+00  1.000000e+00
   outer loop
     vertex  2.938926e+00  1.754508e+01  1.500000e+00
     vertex -2.938926e+00  1.754508e+01  1.500000e+00
     vertex -1.776357e-15  8.500000e+00  1.500000e+00
   endloop
 endfacet
 facet normal  0.000000e+00  0.000000e+00  1.000000e+00
   outer loop
     vertex  2.938926e+00  1.754508e+01  1.500000e+00
     vertex -1.776357e-15  8.500000e+00  1.500000e+00
     vertex  4.755283e+00  1.195492e+01  1.500000e+00
   endloop
 endfacet
 facet normal  0.000000e+00  0.000000e+00  1.000000e+00
   outer loop
     vertex  0.000000e+00  2.350000e+01  1.500000e+00
     vertex -2.938926e+00  1.754508e+01  1.500000e+00
     vertex  2.938926e+00  1.754508e+01  1.500000e+00
   endloop
 endfacet
 facet normal  0.000000e+00  0.000000e+00  1.000000e+00
   outer loop
     vertex  9.510565e+00  1.659017e+01  1.500000e+00
     vertex  2.938926e+00  1.754508e+01  1.500000e+00
     vertex  4.755283e+00  1.195492e+01  1.500000e+00
   endloop
 endfacet
endsolid
