solid 
 facet normal -8.967361e-01  4.425657e-01  0.000000e+00
   outer loop
     vertex -2.938926e+00  4.045085e+00  0.000000e+00
     vertex  6.123234e-16  1.000000e+01  3.000000e+00
     vertex  6.123234e-16  1.000000e+01  0.000000e+00
   endloop
 endfacet
 facet normal -8.967361e-01  4.425657e-01  0.000000e+00
   outer loop
     vertex -2.938926e+00  4.045085e+00  0.000000e+00
     vertex -2.938926e+00  4.045085e+00  3.000000e+00
     vertex  6.123234e-16  1.000000e+01  3.000000e+00
   endloop
 endfacet
 facet normal -1.437983e-01  9.896070e-01  0.000000e+00
   outer loop
     vertex -9.510565e+00  3.090170e+00  0.000000e+00
     vertex -2.938926e+00  4.045085e+00  3.000000e+00
     vertex -2.938926e+00  4.045085e+00  0.000000e+00
   endloop
 endfacet
 facet normal -1.437983e-01  9.896070e-01  0.000000e+00
   outer loop
     vertex -9.510565e+00  3.090170e+00  0.000000e+00
     vertex -9.510565e+00  3.090170e+00  3.000000e+00
     vertex -2.938926e+00  4.045085e+00  3.000000e+00
   endloop
 endfacet
 facet normal -6.980117e-01 -7.160864e-01  0.000000e+00
   outer loop
     vertex -4.755283e+00 -1.545085e+00  0.000000e+00
     vertex -9.510565e+00  3.090170e+00  3.000000e+00
     vertex -9.510565e+00  3.090170e+00  0.000000e+00
   endloop
 endfacet
 facet normal -6.980117e-01 -7.160864e-01  0.000000e+00
   outer loop
     vertex -4.755283e+00 -1.545085e+00  0.000000e+00
     vertex -4.755283e+00 -1.545085e+00  3.000000e+00
     vertex -9.510565e+00  3.090170e+00  3.000000e+00
   endloop
 endfacet
 facet normal -9.856083e-01  1.690451e-01  0.000000e+00
   outer loop
     vertex -5.877853e+00 -8.090170e+00  0.000000e+00
     vertex -4.755283e+00 -1.545085e+00  3.000000e+00
     vertex -4.755283e+00 -1.545085e+00  0.000000e+00
   endloop
 endfacet
 facet normal -9.856083e-01  1.690451e-01  0.000000e+00
   outer loop
     vertex -5.877853e+00 -8.090170e+00  0.000000e+00
     vertex -5.877853e+00 -8.090170e+00  3.000000e+00
     vertex -4.755283e+00 -1.545085e+00  3.000000e+00
   endloop
 endfacet
 facet normal  4.653411e-01 -8.851314e-01  0.000000e+00
   outer loop
     vertex -9.184851e-16 -5.000000e+00  0.000000e+00
     vertex -5.877853e+00 -8.090170e+00  3.000000e+00
     vertex -5.877853e+00 -8.090170e+00  0.000000e+00
   endloop
 endfacet
 facet normal  4.653411e-01 -8.851314e-01  0.000000e+00
   outer loop
     vertex -9.184851e-16 -5.000000e+00  0.000000e+00
     vertex -9.184851e-16 -5.000000e+00  3.000000e+00
     vertex -5.877853e+00 -8.090170e+00  3.000000e+00
   endloop
 endfacet
 facet normal -4.653411e-01 -8.851314e-01  0.000000e+00
   outer loop
     vertex  5.877853e+00 -8.090170e+00  0.000000e+00
     vertex -9.184851e-16 -5.000000e+00  3.000000e+00
     vertex -9.184851e-16 -5.000000e+00  0.000000e+00
   endloop
 endfacet
 facet normal -4.653411e-01 -8.851314e-01  0.000000e+00
   outer loop
     vertex  5.877853e+00 -8.090170e+00  0.000000e+00
     vertex  5.877853e+00 -8.090170e+00  3.000000e+00
     vertex -9.184851e-16 -5.000000e+00  3.000000e+00
   endloop
 endfacet
 facet normal  9.856083e-01  1.690451e-01  0.000000e+00
   outer loop
     vertex  4.755283e+00 -1.545085e+00  0.000000e+00
     vertex  5.877853e+00 -8.090170e+00  3.000000e+00
     vertex  5.877853e+00 -8.090170e+00  0.000000e+00
   endloop
 endfacet
 facet normal  9.856083e-01  1.690451e-01 -0.000000e+00
   outer loop
     vertex  4.755283e+00 -1.545085e+00  0.000000e+00
     vertex  4.755283e+00 -1.545085e+00  3.000000e+00
     vertex  5.877853e+00 -8.090170e+00  3.000000e+00
   endloop
 endfacet
 facet normal  6.980117e-01 -7.160864e-01  0.000000e+00
   outer loop
     vertex  9.510565e+00  3.090170e+00  0.000000e+00
     vertex  4.755283e+00 -1.545085e+00  3.000000e+00
     vertex  4.755283e+00 -1.545085e+00  0.000000e+00
   endloop
 endfacet
 facet normal  6.980117e-01 -7.160864e-01  0.000000e+00
   outer loop
     vertex  9.510565e+00  3.090170e+00  0.000000e+00
     vertex  9.510565e+00  3.090170e+00  3.000000e+00
     vertex  4.755283e+00 -1.545085e+00  3.000000e+00
   endloop
 endfacet
 facet normal  1.437983e-01  9.896070e-01  0.000000e+00
   outer loop
     vertex  2.938926e+00  4.045085e+00  0.000000e+00
     vertex  9.510565e+00  3.090170e+00  3.000000e+00
     vertex  9.510565e+00  3.090170e+00  0.000000e+00
   endloop
 endfacet
 facet normal  1.437983e-01  9.896070e-01 -0.000000e+00
   outer loop
     vertex  2.938926e+00  4.045085e+00  0.000000e+00
     vertex  2.938926e+00  4.045085e+00  3.000000e+00
     vertex  9.510565e+00  3.090170e+00  3.000000e+00
   endloop
 endfacet
 facet normal  8.967361e-01  4.425657e-01  0.000000e+00
   outer loop
     vertex  6.123234e-16  1.000000e+01  0.000000e+00
     vertex  2.938926e+00  4.045085e+00  3.000000e+00
     vertex  2.938926e+00  4.045085e+00  0.000000e+00
   endloop
 endfacet
 facet normal  8.967361e-01  4.425657e-01 -0.000000e+00
   outer loop
     vertex  6.123234e-16  1.000000e+01  0.000000e+00
     vertex  6.123234e-16  1.000000e+01  3.000000e+00
     vertex  2.938926e+00  4.045085e+00  3.000000e+00
   endloop
 endfacet
 facet normal -0.000000e+00  0.000000e+00 -1.000000e+00
   outer loop
     vertex -9.184851e-16 -5.000000e+00  0.000000e+00
     vertex -5.877853e+00 -8.090170e+00  0.000000e+00
     vertex -4.755283e+00 -1.545085e+00  0.000000e+00
   endloop
 endfacet
 facet normal  0.000000e+00  0.000000e+00 -1.000000e+00
   outer loop
     vertex -2.938926e+00  4.045085e+00  0.000000e+00
     vertex -4.755283e+00 -1.545085e+00  0.000000e+00
     vertex -9.510565e+00  3.090170e+00  0.000000e+00
   endloop
 endfacet
 facet normal  0.000000e+00 -0.000000e+00 -1.000000e+00
   outer loop
     vertex  4.755283e+00 -1.545085e+00  0.000000e+00
     vertex  5.877853e+00 -8.090170e+00  0.000000e+00
     vertex -9.184851e-16 -5.000000e+00  0.000000e+00
   endloop
 endfacet
 facet normal -0.000000e+00  0.000000e+00 -1.000000e+00
   outer loop
     vertex  4.755283e+00 -1.545085e+00  0.000000e+00
     vertex -9.184851e-16 -5.000000e+00  0.000000e+00
     vertex -4.755283e+00 -1.545085e+00  0.000000e+00
   endloop
 endfacet
 facet normal -0.000000e+00  0.000000e+00 -1.000000e+00
   outer loop
     vertex  2.938926e+00  4.045085e+00  0.000000e+00
     vertex -4.755283e+00 -1.545085e+00  0.000000e+00
     vertex -2.938926e+00  4.045085e+00  0.000000e+00
   endloop
 endfacet
 facet normal  0.000000e+00 -0.000000e+00 -1.000000e+00
   outer loop
     vertex  2.938926e+00  4.045085e+00  0.000000e+00
     vertex  4.755283e+00 -1.545085e+00  0.000000e+00
     vertex -4.755283e+00 -1.545085e+00  0.000000e+00
   endloop
 endfacet
 facet normal  0.000000e+00 -0.000000e+00 -1.000000e+00
   outer loop
     vertex  6.123234e-16  1.000000e+01  0.000000e+00
     vertex  2.938926e+00  4.045085e+00  0.000000e+00
     vertex -2.938926e+00  4.045085e+00  0.000000e+00
   endloop
 endfacet
 facet normal -0.000000e+00  0.000000e+00 -1.000000e+00
   outer loop
     vertex  9.510565e+00  3.090170e+00  0.000000e+00
     vertex  4.755283e+00 -1.545085e+00  0.000000e+00
     vertex  2.938926e+00  4.045085e+00  0.000000e+00
   endloop
 endfacet
 facet normal  0.000000e+00  0.000000e+00  1.000000e+00
   outer loop
     vertex -9.184851e-16 -5.000000e+00  3.000000e+00
     vertex -4.755283e+00 -1.545085e+00  3.000000e+00
     vertex -5.877853e+00 -8.090170e+00  3.000000e+00
   endloop
 endfacet
 facet normal  0.000000e+00  0.000000e+00  1.000000e+00
   outer loop
     vertex -2.938926e+00  4.045085e+00  3.000000e+00
     vertex -9.510565e+00  3.090170e+00  3.000000e+00
     vertex -4.755283e+00 -1.545085e+00  3.000000e+00
   endloop
 endfacet
 facet normal  0.000000e+00  0.000000e+00  1.000000e+00
   outer loop
     vertex  4.755283e+00 -1.545085e+00  3.000000e+00
     vertex -9.184851e-16 -5.000000e+00  3.000000e+00
     vertex  5.877853e+00 -8.090170e+00  3.000000e+00
   endloop
 endfacet
 facet normal  0.000000e+00  0.000000e+00  1.000000e+00
   outer loop
     vertex  4.755283e+00 -1.545085e+00  3.000000e+00
     vertex -4.755283e+00 -1.545085e+00  3.000000e+00
     vertex -9.184851e-16 -5.000000e+00  3.000000e+00
   endloop
 endfacet
 facet normal  0.000000e+00  0.000000e+00  1.000000e+00
   outer loop
     vertex  2.938926e+00  4.045085e+00  3.000000e+00
     vertex -2.938926e+00  4.045085e+00  3.000000e+00
     vertex -4.755283e+00 -1.545085e+00  3.000000e+00
   endloop
 endfacet
 facet normal  0.000000e+00  0.000000e+00  1.000000e+00
   outer loop
     vertex  2.938926e+00  4.045085e+00  3.000000e+00
     vertex -4.755283e+00 -1.545085e+00  3.000000e+00
     vertex  4.755283e+00 -1.545085e+00  3.000000e+00
   endloop
 endfacet
 facet normal  0.000000e+00  0.000000e+00  1.000000e+00
   outer loop
     vertex  6.123234e-16  1.000000e+01  3.000000e+00
     vertex -2.938926e+00  4.045085e+00  3.000000e+00
     vertex  2.938926e+00  4.045085e+00  3.000000e+00
   endloop
 endfacet
 facet normal  0.000000e+00  0.000000e+00  1.000000e+00
   outer loop
     vertex  9.510565e+00  3.090170e+00  3.000000e+00
     vertex  2.938926e+00  4.045085e+00  3.000000e+00
     vertex  4.755283e+00 -1.545085e+00  3.000000e+00
   endloop
 endfacet
endsolid
