solid 
 facet normal  9.009689e-01  4.338837e-01  0.000000e+00
   outer loop
     vertex  6.234898e+00  7.818315e+00  0.000000e+00
     vertex  1.000000e+01  0.000000e+00  5.000000e+00
     vertex  1.000000e+01  0.000000e+00  0.000000e+00
   endloop
 endfacet
 facet normal  9.009689e-01  4.338837e-01 -0.000000e+00
   outer loop
     vertex  6.234898e+00  7.818315e+00  0.000000e+00
     vertex  6.234898e+00  7.818315e+00  5.000000e+00
     vertex  1.000000e+01  0.000000e+00  5.000000e+00
   endloop
 endfacet
 facet normal  2.225209e-01  9.749279e-01  0.000000e+00
   outer loop
     vertex -2.225209e+00  9.749279e+00  0.000000e+00
     vertex  6.234898e+00  7.818315e+00  5.000000e+00
     vertex  6.234898e+00  7.818315e+00  0.000000e+00
   endloop
 endfacet
 facet normal  2.225209e-01  9.749279e-01 -0.000000e+00
   outer loop
     vertex -2.225209e+00  9.749279e+00  0.000000e+00
     vertex -2.225209e+00  9.749279e+00  5.000000e+00
     vertex  6.234898e+00  7.818315e+00  5.000000e+00
   endloop
 endfacet
 facet normal -6.234898e-01  7.818315e-01  0.000000e+00
   outer loop
     vertex -9.009689e+00  4.338837e+00  0.000000e+00
     vertex -2.225209e+00  9.749279e+00  5.000000e+00
     vertex -2.225209e+00  9.749279e+00  0.000000e+00
   endloop
 endfacet
 facet normal -6.234898e-01  7.818315e-01  0.000000e+00
   outer loop
     vertex -9.009689e+00  4.338837e+00  0.000000e+00
     vertex -9.009689e+00  4.338837e+00  5.000000e+00
     vertex -2.225209e+00  9.749279e+00  5.000000e+00
   endloop
 endfacet
 facet normal -1.000000e+00  2.047042e-16  0.000000e+00
   outer loop
     vertex -9.009689e+00 -4.338837e+00  0.000000e+00
     vertex -9.009689e+00  4.338837e+00  5.000000e+00
     vertex -9.009689e+00  4.338837e+00  0.000000e+00
   endloop
 endfacet
 facet normal -1.000000e+00  2.047042e-16  0.000000e+00
   outer loop
     vertex -9.009689e+00 -4.338837e+00  0.000000e+00
     vertex -9.009689e+00 -4.338837e+00  5.000000e+00
     vertex -9.009689e+00  4.338837e+00  5.000000e+00
   endloop
 endfacet
 facet normal -6.234898e-01 -7.818315e-01  0.000000e+00
   outer loop
     vertex -2.225209e+00 -9.749279e+00  0.000000e+00
     vertex -9.009689e+00 -4.338837e+00  5.000000e+00
     vertex -9.009689e+00 -4.338837e+00  0.000000e+00
   endloop
 endfacet
 facet normal -6.234898e-01 -7.818315e-01  0.000000e+00
   outer loop
     vertex -2.225209e+00 -9.749279e+00  0.000000e+00
     vertex -2.225209e+00 -9.749279e+00  5.000000e+00
     vertex -9.009689e+00 -4.338837e+00  5.000000e+00
   endloop
 endfacet
 facet normal  2.225209e-01 -9.749279e-01  0.000000e+00
   outer loop
     vertex  6.234898e+00 -7.818315e+00  0.000000e+00
     vertex -2.225209e+00 -9.749279e+00  5.000000e+00
     vertex -2.225209e+00 -9.749279e+00  0.000000e+00
   endloop
 endfacet
 facet normal  2.225209e-01 -9.749279e-01  0.000000e+00
   outer loop
     vertex  6.234898e+00 -7.818315e+00  0.000000e+00
     vertex  6.234898e+00 -7.818315e+00  5.000000e+00
     vertex -2.225209e+00 -9.749279e+00  5.000000e+00
   endloop
 endfacet
 facet normal  9.009689e-01 -4.338837e-01  0.000000e+00
   outer loop
     vertex  1.000000e+01  0.000000e+00  0.000000e+00
     vertex  6.234898e+00 -7.818315e+00  5.000000e+00
     vertex  6.234898e+00 -7.818315e+00  0.000000e+00
   endloop
 endfacet
 facet normal  9.009689e-01 -4.338837e-01  0.000000e+00
   outer loop
     vertex  1.000000e+01  0.000000e+00  0.000000e+00
     vertex  1.000000e+01  0.000000e+00  5.000000e+00
     vertex  6.234898e+00 -7.818315e+00  5.000000e+00
   endloop
 endfacet
 facet normal  0.000000e+00 -0.000000e+00 -1.000000e+00
   outer loop
     vertex -9.009689e+00  4.338837e+00  0.000000e+00
     vertex -2.225209e+00 -9.749279e+00  0.000000e+00
     vertex -9.009689e+00 -4.338837e+00  0.000000e+00
   endloop
 endfacet
 facet normal -0.000000e+00  0.000000e+00 -1.000000e+00
   outer loop
     vertex  6.234898e+00  7.818315e+00  0.000000e+00
     vertex -9.009689e+00  4.338837e+00  0.000000e+00
     vertex -2.225209e+00  9.749279e+00  0.000000e+00
   endloop
 endfacet
 facet normal  0.000000e+00  0.000000e+00 -1.000000e+00
   outer loop
     vertex  6.234898e+00  7.818315e+00  0.000000e+00
     vertex  6.234898e+00 -7.818315e+00  0.000000e+00
     vertex -2.225209e+00 -9.749279e+00  0.000000e+00
   endloop
 endfacet
 facet normal  0.000000e+00 -0.000000e+00 -1.000000e+00
   outer loop
     vertex  6.234898e+00  7.818315e+00  0.000000e+00
     vertex  1.000000e+01  0.000000e+00  0.000000e+00
     vertex  6.234898e+00 -7.818315e+00  0.000000e+00
   endloop
 endfacet
 facet normal  0.000000e+00  0.000000e+00 -1.000000e+00
   outer loop
     vertex  6.234898e+00  7.818315e+00  0.000000e+00
     vertex -2.225209e+00 -9.749279e+00  0.000000e+00
     vertex -9.009689e+00  4.338837e+00  0.000000e+00
   endloop
 endfacet
 facet normal  0.000000e+00  0.000000e+00  1.000000e+00
   outer loop
     vertex -9.009689e+00  4.338837e+00  5.000000e+00
     vertex -9.009689e+00 -4.338837e+00  5.000000e+00
     vertex -2.225209e+00 -9.749279e+00  5.000000e+00
   endloop
 endfacet
 facet normal  0.000000e+00  0.000000e+00  1.000000e+00
   outer loop
     vertex  6.234898e+00  7.818315e+00  5.000000e+00
     vertex -2.225209e+00  9.749279e+00  5.000000e+00
     vertex -9.009689e+00  4.338837e+00  5.000000e+00
   endloop
 endfacet
 facet normal  0.000000e+00  0.000000e+00  1.000000e+00
   outer loop
     vertex  6.234898e+00  7.818315e+00  5.000000e+00
     vertex -2.225209e+00 -9.749279e+00  5.000000e+00
     vertex  6.234898e+00 -7.818315e+00  5.000000e+00
   endloop
 endfacet
 facet normal  0.000000e+00  0.000000e+00  1.000000e+00
   outer loop
     vertex  6.234898e+00  7.818315e+00  5.000000e+00
     vertex  6.234898e+00 -7.818315e+00  5.000000e+00
     vertex  1.000000e+01  0.000000e+00  5.000000e+00
   endloop
 endfacet
 facet normal  0.000000e+00  0.000000e+00  1.000000e+00
   outer loop
     vertex  6.234898e+00  7.818315e+00  5.000000e+00
     vertex -9.009689e+00  4.338837e+00  5.000000e+00
     vertex -2.225209e+00 -9.749279e+00  5.000000e+00
   endloop
 endfacet
endsolid
