solid 
 facet normal  9.396926e-01  3.420201e-01  0.000000e+00
   outer loop
     vertex  7.660444e+00  6.427876e+00  0.000000e+00
     vertex  1.000000e+01  0.000000e+00  5.000000e+00
     vertex  1.000000e+01  0.000000e+00  0.000000e+00
   endloop
 endfacet
 facet normal  9.396926e-01  3.420201e-01 -0.000000e+00
   outer loop
     vertex  7.660444e+00  6.427876e+00  0.000000e+00
     vertex  7.660444e+00  6.427876e+00  5.000000e+00
     vertex  1.000000e+01  0.000000e+00  5.000000e+00
   endloop
 endfacet
 facet normal  5.000000e-01  8.660254e-01  0.000000e+00
   outer loop
     vertex  1.736482e+00  9.848078e+00  0.000000e+00
     vertex  7.660444e+00  6.427876e+00  5.000000e+00
     vertex  7.660444e+00  6.427876e+00  0.000000e+00
   endloop
 endfacet
 facet normal  5.000000e-01  8.660254e-01 -0.000000e+00
   outer loop
     vertex  1.736482e+00  9.848078e+00  0.000000e+00
     vertex  1.736482e+00  9.848078e+00  5.000000e+00
     vertex  7.660444e+00  6.427876e+00  5.000000e+00
   endloop
 endfacet
 facet normal -1.736482e-01  9.848078e-01  0.000000e+00
   outer loop
     vertex -5.000000e+00  8.660254e+00  0.000000e+00
     vertex  1.736482e+00  9.848078e+00  5.000000e+00
     vertex  1.736482e+00  9.848078e+00  0.000000e+00
   endloop
 endfacet
 facet normal -1.736482e-01  9.848078e-01  0.000000e+00
   outer loop
     vertex -5.000000e+00  8.660254e+00  0.000000e+00
     vertex -5.000000e+00  8.660254e+00  5.000000e+00
     vertex  1.736482e+00  9.848078e+00  5.000000e+00
   endloop
 endfacet
 facet normal -7.660444e-01  6.427876e-01  0.000000e+00
   outer loop
     vertex -9.396926e+00  3.420201e+00  0.000000e+00
     vertex -5.000000e+00  8.660254e+00  5.000000e+00
     vertex -5.000000e+00  8.660254e+00  0.000000e+00
   endloop
 endfacet
 facet normal -7.660444e-01  6.427876e-01  0.000000e+00
   outer loop
     vertex -9.396926e+00  3.420201e+00  0.000000e+00
     vertex -9.396926e+00  3.420201e+00  5.000000e+00
     vertex -5.000000e+00  8.660254e+00  5.000000e+00
   endloop
 endfacet
 facet normal -1.000000e+00  2.596860e-16  0.000000e+00
   outer loop
     vertex -9.396926e+00 -3.420201e+00  0.000000e+00
     vertex -9.396926e+00  3.420201e+00  5.000000e+00
     vertex -9.396926e+00  3.420201e+00  0.000000e+00
   endloop
 endfacet
 facet normal -1.000000e+00  2.596860e-16  0.000000e+00
   outer loop
     vertex -9.396926e+00 -3.420201e+00  0.000000e+00
     vertex -9.396926e+00 -3.420201e+00  5.000000e+00
     vertex -9.396926e+00  3.420201e+00  5.000000e+00
   endloop
 endfacet
 facet normal -7.660444e-01 -6.427876e-01  0.000000e+00
   outer loop
     vertex -5.000000e+00 -8.660254e+00  5.000000e+00
     vertex -9.396926e+00 -3.420201e+00  5.000000e+00
     vertex -9.396926e+00 -3.420201e+00  0.000000e+00
   endloop
 endfacet
 facet normal -7.660444e-01 -6.427876e-01  0.000000e+00
   outer loop
     vertex -5.000000e+00 -8.660254e+00  0.000000e+00
     vertex -5.000000e+00 -8.660254e+00  5.000000e+00
     vertex -9.396926e+00 -3.420201e+00  0.000000e+00
   endloop
 endfacet
 facet normal -1.736482e-01 -9.848078e-01  0.000000e+00
   outer loop
     vertex  1.736482e+00 -9.848078e+00  0.000000e+00
     vertex -5.000000e+00 -8.660254e+00  5.000000e+00
     vertex -5.000000e+00 -8.660254e+00  0.000000e+00
   endloop
 endfacet
 facet normal -1.736482e-01 -9.848078e-01  0.000000e+00
   outer loop
     vertex  1.736482e+00 -9.848078e+00  0.000000e+00
     vertex  1.736482e+00 -9.848078e+00  5.000000e+00
     vertex -5.000000e+00 -8.660254e+00  5.000000e+00
   endloop
 endfacet
 facet normal  5.000000e-01 -8.660254e-01  0.000000e+00
   outer loop
     vertex  7.660444e+00 -6.427876e+00  0.000000e+00
     vertex  1.736482e+00 -9.848078e+00  5.000000e+00
     vertex  1.736482e+00 -9.848078e+00  0.000000e+00
   endloop
 endfacet
 facet normal  5.000000e-01 -8.660254e-01  0.000000e+00
   outer loop
     vertex  7.660444e+00 -6.427876e+00  0.000000e+00
     vertex  7.660444e+00 -6.427876e+00  5.000000e+00
     vertex  1.736482e+00 -9.848078e+00  5.000000e+00
   endloop
 endfacet
 facet normal  9.396926e-01 -3.420201e-01  0.000000e+00
   outer loop
     vertex  1.000000e+01  0.000000e+00  5.000000e+00
     vertex  7.660444e+00 -6.427876e+00  5.000000e+00
     vertex  7.660444e+00 -6.427876e+00  0.000000e+00
   endloop
 endfacet
 facet normal  9.396926e-01 -3.420201e-01  0.000000e+00
   outer loop
     vertex  1.000000e+01  0.000000e+00  0.000000e+00
     vertex  1.000000e+01  0.000000e+00  5.000000e+00
     vertex  7.660444e+00 -6.427876e+00  0.000000e+00
   endloop
 endfacet
 facet normal  0.000000e+00 -0.000000e+00 -1.000000e+00
   outer loop
     vertex -9.396926e+00  3.420201e+00  0.000000e+00
     vertex -5.000000e+00 -8.660254e+00  0.000000e+00
     vertex -9.396926e+00 -3.420201e+00  0.000000e+00
   endloop
 endfacet
 facet normal  0.000000e+00  0.000000e+00 -1.000000e+00
   outer loop
     vertex -5.000000e+00  8.660254e+00  0.000000e+00
     vertex -5.000000e+00 -8.660254e+00  0.000000e+00
     vertex -9.396926e+00  3.420201e+00  0.000000e+00
   endloop
 endfacet
 facet normal  0.000000e+00  0.000000e+00 -1.000000e+00
   outer loop
     vertex  1.736482e+00  9.848078e+00  0.000000e+00
     vertex  1.736482e+00 -9.848078e+00  0.000000e+00
     vertex -5.000000e+00 -8.660254e+00  0.000000e+00
   endloop
 endfacet
 facet normal  0.000000e+00  0.000000e+00 -1.000000e+00
   outer loop
     vertex  1.736482e+00  9.848078e+00  0.000000e+00
     vertex -5.000000e+00 -8.660254e+00  0.000000e+00
     vertex -5.000000e+00  8.660254e+00  0.000000e+00
   endloop
 endfacet
 facet normal  0.000000e+00  0.000000e+00 -1.000000e+00
   outer loop
     vertex  7.660444e+00  6.427876e+00  0.000000e+00
     vertex  7.660444e+00 -6.427876e+00  0.000000e+00
     vertex  1.736482e+00 -9.848078e+00  0.000000e+00
   endloop
 endfacet
 facet normal  0.000000e+00 -0.000000e+00 -1.000000e+00
   outer loop
     vertex  7.660444e+00  6.427876e+00  0.000000e+00
     vertex  1.000000e+01  0.000000e+00  0.000000e+00
     vertex  7.660444e+00 -6.427876e+00  0.000000e+00
   endloop
 endfacet
 facet normal -0.000000e+00  0.000000e+00 -1.000000e+00
   outer loop
     vertex  7.660444e+00  6.427876e+00  0.000000e+00
     vertex  1.736482e+00 -9.848078e+00  0.000000e+00
     vertex  1.736482e+00  9.848078e+00  0.000000e+00
   endloop
 endfacet
 facet normal  0.000000e+00  0.000000e+00  1.000000e+00
   outer loop
     vertex -9.396926e+00  3.420201e+00  5.000000e+00
     vertex -9.396926e+00 -3.420201e+00  5.000000e+00
     vertex -5.000000e+00 -8.660254e+00  5.000000e+00
   endloop
 endfacet
 facet normal  0.000000e+00  0.000000e+00  1.000000e+00
   outer loop
     vertex -5.000000e+00  8.660254e+00  5.000000e+00
     vertex -9.396926e+00  3.420201e+00  5.000000e+00
     vertex -5.000000e+00 -8.660254e+00  5.000000e+00
   endloop
 endfacet
 facet normal  0.000000e+00  0.000000e+00  1.000000e+00
   outer loop
     vertex  1.736482e+00  9.848078e+00  5.000000e+00
     vertex -5.000000e+00 -8.660254e+00  5.000000e+00
     vertex  1.736482e+00 -9.848078e+00  5.000000e+00
   endloop
 endfacet
 facet normal  0.000000e+00  0.000000e+00  1.000000e+00
   outer loop
     vertex  1.736482e+00  9.848078e+00  5.000000e+00
     vertex -5.000000e+00  8.660254e+00  5.000000e+00
     vertex -5.000000e+00 -8.660254e+00  5.000000e+00
   endloop
 endfacet
 facet normal  0.000000e+00  0.000000e+00  1.000000e+00
   outer loop
     vertex  7.660444e+00  6.427876e+00  5.000000e+00
     vertex  1.736482e+00 -9.848078e+00  5.000000e+00
     vertex  7.660444e+00 -6.427876e+00  5.000000e+00
   endloop
 endfacet
 facet normal  0.000000e+00  0.000000e+00  1.000000e+00
   outer loop
     vertex  7.660444e+00  6.427876e+00  5.000000e+00
     vertex  7.660444e+00 -6.427876e+00  5.000000e+00
     vertex  1.000000e+01  0.000000e+00  5.000000e+00
   endloop
 endfacet
 facet normal  0.000000e+00  0.000000e+00  1.000000e+00
   outer loop
     vertex  7.660444e+00  6.427876e+00  5.000000e+00
     vertex  1.736482e+00  9.848078e+00  5.000000e+00
     vertex  1.736482e+00 -9.848078e+00  5.000000e+00
   endloop
 endfacet
endsolid
