solid 
 facet normal  9.238795e-01  3.826834e-01  0.000000e+00
   outer loop
     vertex  7.071068e+00  7.071068e+00  5.000000e+00
     vertex  1.000000e+01  0.000000e+00  5.000000e+00
     vertex  1.000000e+01  0.000000e+00  0.000000e+00
   endloop
 endfacet
 facet normal  9.238795e-01  3.826834e-01 -0.000000e+00
   outer loop
     vertex  7.071068e+00  7.071068e+00  0.000000e+00
     vertex  7.071068e+00  7.071068e+00  5.000000e+00
     vertex  1.000000e+01  0.000000e+00  0.000000e+00
   endloop
 endfacet
 facet normal  3.826834e-01  9.238795e-01  0.000000e+00
   outer loop
     vertex  6.123234e-16  1.000000e+01  0.000000e+00
     vertex  7.071068e+00  7.071068e+00  5.000000e+00
     vertex  7.071068e+00  7.071068e+00  0.000000e+00
   endloop
 endfacet
 facet normal  3.826834e-01  9.238795e-01 -0.000000e+00
   outer loop
     vertex  6.123234e-16  1.000000e+01  0.000000e+00
     vertex  6.123234e-16  1.000000e+01  5.000000e+00
     vertex  7.071068e+00  7.071068e+00  5.000000e+00
   endloop
 endfacet
 facet normal -3.826834e-01  9.238795e-01  0.000000e+00
   outer loop
     vertex -7.071068e+00  7.071068e+00  5.000000e+00
     vertex  6.123234e-16  1.000000e+01  5.000000e+00
     vertex  6.123234e-16  1.000000e+01  0.000000e+00
   endloop
 endfacet
 facet normal -3.826834e-01  9.238795e-01  0.000000e+00
   outer loop
     vertex -7.071068e+00  7.071068e+00  0.000000e+00
     vertex -7.071068e+00  7.071068e+00  5.000000e+00
     vertex  6.123234e-16  1.000000e+01  0.000000e+00
   endloop
 endfacet
 facet normal -9.238795e-01  3.826834e-01  0.000000e+00
   outer loop
     vertex -1.000000e+01  1.224647e-15  0.000000e+00
     vertex -7.071068e+00  7.071068e+00  5.000000e+00
     vertex -7.071068e+00  7.071068e+00  0.000000e+00
   endloop
 endfacet
 facet normal -9.238795e-01  3.826834e-01  0.000000e+00
   outer loop
     vertex -1.000000e+01  1.224647e-15  0.000000e+00
     vertex -1.000000e+01  1.224647e-15  5.000000e+00
     vertex -7.071068e+00  7.071068e+00  5.000000e+00
   endloop
 endfacet
 facet normal -9.238795e-01 -3.826834e-01  0.000000e+00
   outer loop
     vertex -7.071068e+00 -7.071068e+00  0.000000e+00
     vertex -1.000000e+01  1.224647e-15  5.000000e+00
     vertex -1.000000e+01  1.224647e-15  0.000000e+00
   endloop
 endfacet
 facet normal -9.238795e-01 -3.826834e-01  0.000000e+00
   outer loop
     vertex -7.071068e+00 -7.071068e+00  0.000000e+00
     vertex -7.071068e+00 -7.071068e+00  5.000000e+00
     vertex -1.000000e+01  1.224647e-15  5.000000e+00
   endloop
 endfacet
 facet normal -3.826834e-01 -9.238795e-01  0.000000e+00
   outer loop
     vertex -1.836970e-15 -1.000000e+01  5.000000e+00
     vertex -7.071068e+00 -7.071068e+00  5.000000e+00
     vertex -7.071068e+00 -7.071068e+00  0.000000e+00
   endloop
 endfacet
 facet normal -3.826834e-01 -9.238795e-01  0.000000e+00
   outer loop
     vertex -1.836970e-15 -1.000000e+01  0.000000e+00
     vertex -1.836970e-15 -1.000000e+01  5.000000e+00
     vertex -7.071068e+00 -7.071068e+00  0.000000e+00
   endloop
 endfacet
 facet normal  3.826834e-01 -9.238795e-01  0.000000e+00
   outer loop
     vertex  7.071068e+00 -7.071068e+00  0.000000e+00
     vertex -1.836970e-15 -1.000000e+01  5.000000e+00
     vertex -1.836970e-15 -1.000000e+01  0.000000e+00
   endloop
 endfacet
 facet normal  3.826834e-01 -9.238795e-01  0.000000e+00
   outer loop
     vertex  7.071068e+00 -7.071068e+00  0.000000e+00
     vertex  7.071068e+00 -7.071068e+00  5.000000e+00
     vertex -1.836970e-15 -1.000000e+01  5.000000e+00
   endloop
 endfacet
 facet normal  9.238795e-01 -3.826834e-01  0.000000e+00
   outer loop
     vertex  1.000000e+01  0.000000e+00  0.000000e+00
     vertex  7.071068e+00 -7.071068e+00  5.000000e+00
     vertex  7.071068e+00 -7.071068e+00  0.000000e+00
   endloop
 endfacet
 facet normal  9.238795e-01 -3.826834e-01  0.000000e+00
   outer loop
     vertex  1.000000e+01  0.000000e+00  0.000000e+00
     vertex  1.000000e+01  0.000000e+00  5.000000e+00
     vertex  7.071068e+00 -7.071068e+00  5.000000e+00
   endloop
 endfacet
 facet normal  0.000000e+00  0.000000e+00 -1.000000e+00
   outer loop
     vertex -7.071068e+00  7.071068e+00  0.000000e+00
     vertex -7.071068e+00 -7.071068e+00  0.000000e+00
     vertex -1.000000e+01  1.224647e-15  0.000000e+00
   endloop
 endfacet
 facet normal  0.000000e+00  0.000000e+00 -1.000000e+00
   outer loop
     vertex  6.123234e-16  1.000000e+01  0.000000e+00
     vertex -1.836970e-15 -1.000000e+01  0.000000e+00
     vertex -7.071068e+00 -7.071068e+00  0.000000e+00
   endloop
 endfacet
 facet normal  0.000000e+00  0.000000e+00 -1.000000e+00
   outer loop
     vertex  6.123234e-16  1.000000e+01  0.000000e+00
     vertex -7.071068e+00 -7.071068e+00  0.000000e+00
     vertex -7.071068e+00  7.071068e+00  0.000000e+00
   endloop
 endfacet
 facet normal  0.000000e+00  0.000000e+00 -1.000000e+00
   outer loop
     vertex  7.071068e+00  7.071068e+00  0.000000e+00
     vertex  7.071068e+00 -7.071068e+00  0.000000e+00
     vertex -1.836970e-15 -1.000000e+01  0.000000e+00
   endloop
 endfacet
 facet normal  0.000000e+00 -0.000000e+00 -1.000000e+00
   outer loop
     vertex  7.071068e+00  7.071068e+00  0.000000e+00
     vertex  1.000000e+01  0.000000e+00  0.000000e+00
     vertex  7.071068e+00 -7.071068e+00  0.000000e+00
   endloop
 endfacet
 facet normal -0.000000e+00  0.000000e+00 -1.000000e+00
   outer loop
     vertex  7.071068e+00  7.071068e+00  0.000000e+00
     vertex -1.836970e-15 -1.000000e+01  0.000000e+00
     vertex  6.123234e-16  1.000000e+01  0.000000e+00
   endloop
 endfacet
 facet normal  0.000000e+00  0.000000e+00  1.000000e+00
   outer loop
     vertex -7.071068e+00  7.071068e+00  5.000000e+00
     vertex -1.000000e+01  1.224647e-15  5.000000e+00
     vertex -7.071068e+00 -7.071068e+00  5.000000e+00
   endloop
 endfacet
 facet normal  0.000000e+00  0.000000e+00  1.000000e+00
   outer loop
     vertex  6.123234e-16  1.000000e+01  5.000000e+00
     vertex -7.071068e+00 -7.071068e+00  5.000000e+00
     vertex -1.836970e-15 -1.000000e+01  5.000000e+00
   endloop
 endfacet
 facet normal  0.000000e+00  0.000000e+00  1.000000e+00
   outer loop
     vertex  6.123234e-16  1.000000e+01  5.000000e+00
     vertex -7.071068e+00  7.071068e+00  5.000000e+00
     vertex -7.071068e+00 -7.071068e+00  5.000000e+00
   endloop
 endfacet
 facet normal  0.000000e+00  0.000000e+00  1.000000e+00
   outer loop
     vertex  7.071068e+00  7.071068e+00  5.000000e+00
     vertex -1.836970e-15 -1.000000e+01  5.000000e+00
     vertex  7.071068e+00 -7.071068e+00  5.000000e+00
   endloop
 endfacet
 facet normal  0.000000e+00  0.000000e+00  1.000000e+00
   outer loop
     vertex  7.071068e+00  7.071068e+00  5.000000e+00
     vertex  7.071068e+00 -7.071068e+00  5.000000e+00
     vertex  1.000000e+01  0.000000e+00  5.000000e+00
   endloop
 endfacet
 facet normal  0.000000e+00  0.000000e+00  1.000000e+00
   outer loop
     vertex  7.071068e+00  7.071068e+00  5.000000e+00
     vertex  6.123234e-16  1.000000e+01  5.000000e+00
     vertex -1.836970e-15 -1.000000e+01  5.000000e+00
   endloop
 endfacet
endsolid
