solid 
 facet normal  8.090170e-01  5.877853e-01  0.000000e+00
   outer loop
     vertex  3.090170e+00  9.510565e+00  0.000000e+00
     vertex  1.000000e+01  0.000000e+00  5.000000e+00
     vertex  1.000000e+01  0.000000e+00  0.000000e+00
   endloop
 endfacet
 facet normal  8.090170e-01  5.877853e-01 -0.000000e+00
   outer loop
     vertex  3.090170e+00  9.510565e+00  0.000000e+00
     vertex  3.090170e+00  9.510565e+00  5.000000e+00
     vertex  1.000000e+01  0.000000e+00  5.000000e+00
   endloop
 endfacet
 facet normal -3.090170e-01  9.510565e-01  0.000000e+00
   outer loop
     vertex -8.090170e+00  5.877853e+00  0.000000e+00
     vertex  3.090170e+00  9.510565e+00  5.000000e+00
     vertex  3.090170e+00  9.510565e+00  0.000000e+00
   endloop
 endfacet
 facet normal -3.090170e-01  9.510565e-01  0.000000e+00
   outer loop
     vertex -8.090170e+00  5.877853e+00  0.000000e+00
     vertex -8.090170e+00  5.877853e+00  5.000000e+00
     vertex  3.090170e+00  9.510565e+00  5.000000e+00
   endloop
 endfacet
 facet normal -1.000000e+00  1.511059e-16  0.000000e+00
   outer loop
     vertex -8.090170e+00 -5.877853e+00  0.000000e+00
     vertex -8.090170e+00  5.877853e+00  5.000000e+00
     vertex -8.090170e+00  5.877853e+00  0.000000e+00
   endloop
 endfacet
 facet normal -1.000000e+00  1.511059e-16  0.000000e+00
   outer loop
     vertex -8.090170e+00 -5.877853e+00  0.000000e+00
     vertex -8.090170e+00 -5.877853e+00  5.000000e+00
     vertex -8.090170e+00  5.877853e+00  5.000000e+00
   endloop
 endfacet
 facet normal -3.090170e-01 -9.510565e-01  0.000000e+00
   outer loop
     vertex  3.090170e+00 -9.510565e+00  0.000000e+00
     vertex -8.090170e+00 -5.877853e+00  5.000000e+00
     vertex -8.090170e+00 -5.877853e+00  0.000000e+00
   endloop
 endfacet
 facet normal -3.090170e-01 -9.510565e-01  0.000000e+00
   outer loop
     vertex  3.090170e+00 -9.510565e+00  0.000000e+00
     vertex  3.090170e+00 -9.510565e+00  5.000000e+00
     vertex -8.090170e+00 -5.877853e+00  5.000000e+00
   endloop
 endfacet
 facet normal  8.090170e-01 -5.877853e-01  0.000000e+00
   outer loop
     vertex  1.000000e+01  0.000000e+00  0.000000e+00
     vertex  3.090170e+00 -9.510565e+00  5.000000e+00
     vertex  3.090170e+00 -9.510565e+00  0.000000e+00
   endloop
 endfacet
 facet normal  8.090170e-01 -5.877853e-01  0.000000e+00
   outer loop
     vertex  1.000000e+01  0.000000e+00  0.000000e+00
     vertex  1.000000e+01  0.000000e+00  5.000000e+00
     vertex  3.090170e+00 -9.510565e+00  5.000000e+00
   endloop
 endfacet
 facet normal  0.000000e+00  0.000000e+00 -1.000000e+00
   outer loop
     vertex  3.090170e+00  9.510565e+00  0.000000e+00
     vertex -8.090170e+00 -5.877853e+00  0.000000e+00
     vertex -8.090170e+00  5.877853e+00  0.000000e+00
   endloop
 endfacet
 facet normal  0.000000e+00  0.000000e+00 -1.000000e+00
   outer loop
     vertex  3.090170e+00  9.510565e+00  0.000000e+00
     vertex  3.090170e+00 -9.510565e+00  0.000000e+00
     vertex -8.090170e+00 -5.877853e+00  0.000000e+00
   endloop
 endfacet
 facet normal  0.000000e+00 -0.000000e+00 -1.000000e+00
   outer loop
     vertex  3.090170e+00  9.510565e+00  0.000000e+00
     vertex  1.000000e+01  0.000000e+00  0.000000e+00
     vertex  3.090170e+00 -9.510565e+00  0.000000e+00
   endloop
 endfacet
 facet normal  0.000000e+00  0.000000e+00  1.000000e+00
   outer loop
     vertex  3.090170e+00  9.510565e+00  5.000000e+00
     vertex -8.090170e+00  5.877853e+00  5.000000e+00
     vertex -8.090170e+00 -5.877853e+00  5.000000e+00
   endloop
 endfacet
 facet normal  0.000000e+00  0.000000e+00  1.000000e+00
   outer loop
     vertex  3.090170e+00  9.510565e+00  5.000000e+00
     vertex -8.090170e+00 -5.877853e+00  5.000000e+00
     vertex  3.090170e+00 -9.510565e+00  5.000000e+00
   endloop
 endfacet
 facet normal  0.000000e+00  0.000000e+00  1.000000e+00
   outer loop
     vertex  3.090170e+00  9.510565e+00  5.000000e+00
     vertex  3.090170e+00 -9.510565e+00  5.000000e+00
     vertex  1.000000e+01  0.000000e+00  5.000000e+00
   endloop
 endfacet
endsolid
