solid 
 facet normal -1.000000e+00  0.000000e+00  0.000000e+00
   outer loop
     vertex -5.000000e+00  3.000000e+00 -2.500000e+00
     vertex -5.000000e+00 -7.000000e+00 -2.500000e+00
     vertex -5.000000e+00 -7.000000e+00  2.500000e+00
   endloop
 endfacet
 facet normal -1.000000e+00  0.000000e+00  0.000000e+00
   outer loop
     vertex -5.000000e+00  3.000000e+00 -2.500000e+00
     vertex -5.000000e+00 -7.000000e+00  2.500000e+00
     vertex -5.000000e+00  3.000000e+00  2.500000e+00
   endloop
 endfacet
 facet normal -3.713907e-01  9.284767e-01  0.000000e+00
   outer loop
     vertex  5.000000e+00  7.000000e+00 -2.500000e+00
     vertex -5.000000e+00  3.000000e+00 -2.500000e+00
     vertex -5.000000e+00  3.000000e+00  2.500000e+00
   endloop
 endfacet
 facet normal -3.713907e-01  9.284767e-01  0.000000e+00
   outer loop
     vertex  5.000000e+00  7.000000e+00 -2.500000e+00
     vertex -5.000000e+00  3.000000e+00  2.500000e+00
     vertex  5.000000e+00  7.000000e+00  2.500000e+00
   endloop
 endfacet
 facet normal  1.000000e+00  0.000000e+00  0.000000e+00
   outer loop
     vertex  5.000000e+00 -3.000000e+00 -2.500000e+00
     vertex  5.000000e+00  7.000000e+00 -2.500000e+00
     vertex  5.000000e+00  7.000000e+00  2.500000e+00
   endloop
 endfacet
 facet normal  1.000000e+00  0.000000e+00  0.000000e+00
   outer loop
     vertex  5.000000e+00 -3.000000e+00 -2.500000e+00
     vertex  5.000000e+00  7.000000e+00  2.500000e+00
     vertex  5.000000e+00 -3.000000e+00  2.500000e+00
   endloop
 endfacet
 facet normal  3.713907e-01 -9.284767e-01  0.000000e+00
   outer loop
     vertex -5.000000e+00 -7.000000e+00 -2.500000e+00
     vertex  5.000000e+00 -3.000000e+00 -2.500000e+00
     vertex  5.000000e+00 -3.000000e+00  2.500000e+00
   endloop
 endfacet
 facet normal  3.713907e-01 -9.284767e-01  0.000000e+00
   outer loop
     vertex -5.000000e+00 -7.000000e+00 -2.500000e+00
     vertex  5.000000e+00 -3.000000e+00  2.500000e+00
     vertex -5.000000e+00 -7.000000e+00  2.500000e+00
   endloop
 endfacet
 facet normal  0.000000e+00  0.000000e+00 -1.000000e+00
   outer loop
     vertex -5.000000e+00  3.000000e+00 -2.500000e+00
     vertex  5.000000e+00  7.000000e+00 -2.500000e+00
     vertex  5.000000e+00 -3.000000e+00 -2.500000e+00
   endloop
 endfacet
 facet normal  0.000000e+00  0.000000e+00 -1.000000e+00
   outer loop
     vertex -5.000000e+00  3.000000e+00 -2.500000e+00
     vertex  5.000000e+00 -3.000000e+00 -2.500000e+00
     vertex -5.000000e+00 -7.000000e+00 -2.500000e+00
   endloop
 endfacet
 facet normal -0.000000e+00  0.000000e+00  1.000000e+00
   outer loop
     vertex -5.000000e+00  3.000000e+00  2.500000e+00
     vertex  5.000000e+00 -3.000000e+00  2.500000e+00
     vertex  5.000000e+00  7.000000e+00  2.500000e+00
   endloop
 endfacet
 facet normal  0.000000e+00  0.000000e+00  1.000000e+00
   outer loop
     vertex -5.000000e+00  3.000000e+00  2.500000e+00
     vertex -5.000000e+00 -7.000000e+00  2.500000e+00
     vertex  5.000000e+00 -3.000000e+00  2.500000e+00
   endloop
 endfacet
endsolid
